<svg width="20" height="20" viewBox="0 0 20 20" fill="none" xmlns="http://www.w3.org/2000/svg">
<path d="M0 0V20H20V0H0ZM16.6154 4.7386L15.5425 5.76711C15.45 5.83772 15.4044 5.95351 15.4232 6.06798V13.6241C15.4039 13.7386 15.45 13.8548 15.5425 13.925L16.5899 14.9535V15.1794H11.3215V14.9535L12.4066 13.9C12.5132 13.7934 12.5132 13.7618 12.5132 13.5991V7.49167L9.49605 15.1544H9.08816L5.57544 7.49167V12.6276C5.54605 12.8434 5.61798 13.061 5.76974 13.2171L7.18114 14.9289V15.1548H3.17939V14.9289L4.59079 13.2171C4.74167 13.0605 4.80921 12.8417 4.77281 12.6276V6.6886C4.78947 6.52368 4.72675 6.36053 4.60351 6.24956L3.34912 4.73816V4.51228H7.2443L10.2553 11.1154L12.9022 4.51228H16.6154V4.7386V4.7386Z" fill="#F9DEB0"/>
</svg>
