<svg width="35" height="34" viewBox="0 0 35 34" fill="none" xmlns="http://www.w3.org/2000/svg">
<path d="M0.832031 0.333496V33.6668H34.1654V0.333496H0.832031ZM28.5243 8.23116L26.7363 9.94534C26.582 10.063 26.506 10.256 26.5374 10.4468V23.0404C26.5053 23.2312 26.582 23.4249 26.7363 23.5418L28.4819 25.256V25.6325H19.7012V25.256L21.5097 23.5002C21.6873 23.3225 21.6873 23.2699 21.6873 22.9987V12.8196L16.6588 25.5908H15.979L10.1244 12.8196V21.3795C10.0755 21.7392 10.1953 22.1018 10.4483 22.362L12.8006 25.2151V25.5915H6.13101V25.2151L8.48335 22.362C8.73481 22.101 8.84738 21.7363 8.78671 21.3795V11.4812C8.81449 11.2063 8.70996 10.9344 8.50455 10.7494L6.4139 8.23043V7.85396H12.9059L17.9241 18.8591L22.3357 7.85396H28.5243V8.23116Z" fill="#1A1311"/>
</svg>
