<svg width="20" height="16" viewBox="0 0 20 16" fill="none" xmlns="http://www.w3.org/2000/svg">
<path d="M20 1.85462C19.2498 2.17351 18.456 2.38361 17.6438 2.47826C18.4974 1.98929 19.1393 1.21246 19.4492 0.293484C18.6421 0.755137 17.7606 1.07905 16.8425 1.25136C16.4559 0.854976 15.9909 0.53964 15.4758 0.324521C14.9607 0.109403 14.4063 -0.0010057 13.8463 6.9026e-06C11.5788 6.9026e-06 9.74375 1.76902 9.74375 3.94972C9.74214 4.25305 9.77767 4.55547 9.84958 4.85053C8.22362 4.77597 6.63147 4.3702 5.17499 3.6592C3.71852 2.9482 2.42979 1.94762 1.39125 0.721472C1.02691 1.32233 0.834222 2.0079 0.833333 2.70652C0.833333 4.07608 1.56375 5.28667 2.66667 5.99591C2.01322 5.98074 1.37316 5.81155 0.800833 5.50271V5.55162C0.800833 7.46737 2.2175 9.06112 4.0925 9.42389C3.73991 9.51584 3.37657 9.56243 3.01167 9.56248C2.75274 9.56292 2.4944 9.53834 2.24042 9.48911C2.76167 11.0584 4.27875 12.1997 6.07583 12.2323C4.61557 13.3332 2.82276 13.9283 0.979167 13.9239C0.651924 13.9234 0.324986 13.9043 0 13.8668C1.87549 15.0384 4.0556 15.6581 6.28083 15.6521C13.8375 15.6521 17.9658 9.63177 17.9658 4.41032C17.9658 4.23912 17.9613 4.06793 17.9529 3.90081C18.7542 3.34323 19.4474 2.65032 20 1.85462Z" fill="#F9DEB0"/>
</svg>
