<svg width="35" height="27" viewBox="0 0 35 27" fill="none" xmlns="http://www.w3.org/2000/svg">
<path d="M34.1673 3.75778C32.9169 4.28927 31.594 4.63943 30.2402 4.79718C31.6629 3.98222 32.7328 2.68752 33.2493 1.15589C31.9042 1.92531 30.4351 2.46517 28.9048 2.75235C28.2604 2.09171 27.4855 1.56615 26.627 1.20762C25.7685 0.849086 24.8445 0.665072 23.9111 0.66676C20.1319 0.66676 17.0736 3.61512 17.0736 7.24962C17.0709 7.75516 17.1301 8.2592 17.25 8.75097C14.54 8.62669 11.8864 7.95042 9.45897 6.76542C7.03151 5.58042 4.88363 3.91278 3.15273 1.8692C2.54549 2.87064 2.22435 4.01325 2.22287 5.17761C2.22287 7.46022 3.44023 9.47787 5.27843 10.6599C4.18935 10.6347 3.12259 10.3527 2.16871 9.83793V9.91945C2.16871 13.1124 4.52982 15.7686 7.65482 16.3732C7.06717 16.5265 6.4616 16.6041 5.85343 16.6042C5.42189 16.6049 4.99132 16.564 4.56801 16.4819C5.43676 19.0974 7.96523 20.9996 10.9604 21.0539C8.52661 22.8888 5.53858 23.8805 2.46593 23.8732C1.92052 23.8724 1.37563 23.8407 0.833984 23.7781C3.9598 25.7307 7.59332 26.7635 11.302 26.7536C23.8965 26.7536 30.777 16.7197 30.777 8.01728C30.777 7.73196 30.7694 7.44663 30.7555 7.1681C32.091 6.23879 33.2463 5.08394 34.1673 3.75778Z" fill="#1A1311"/>
</svg>
