<svg width="170" height="54" viewBox="0 0 170 54" fill="none" xmlns="http://www.w3.org/2000/svg">
<path fill-rule="evenodd" clip-rule="evenodd" d="M3.24404 53V42.9979L22.2458 25.0518L22.261 25.038C23.6483 23.7808 24.5759 22.7331 25.1248 21.8914C25.7306 20.9625 26.0706 20.209 26.2259 19.619L26.2382 19.572L26.2529 19.5257C26.4778 18.8135 26.568 18.226 26.568 17.748C26.568 16.3603 26.1224 15.5471 25.3873 14.9894L25.3564 14.966L25.3266 14.9414C24.5592 14.3111 23.2117 13.832 20.952 13.832C19.2262 13.832 17.6507 14.163 16.202 14.8095C14.8699 15.4235 13.7066 16.3877 12.7134 17.763L11.6032 19.3001L0.276855 12.0052L1.40393 10.3146C3.4357 7.26694 6.26196 4.88982 9.80965 3.16525L10.684 4.96398C8.08927 6.22533 5.95289 7.84479 4.2749 9.82236C3.84212 10.3324 3.43983 10.8663 3.06804 11.424L11.092 16.592C12.2707 14.96 13.6987 13.7586 15.376 12.988C17.0987 12.2173 18.9574 11.832 20.952 11.832C23.4454 11.832 25.3267 12.3533 26.596 13.396C27.9107 14.3933 28.568 15.844 28.568 17.748C28.568 18.4733 28.432 19.2667 28.16 20.128C27.9334 20.9893 27.48 21.9413 26.8 22.984C26.12 24.0266 25.0547 25.2053 23.604 26.52L5.24404 43.86V51H41.216V42.024H20.7232L31.696 31.688C33.9174 29.6026 35.5947 27.7213 36.728 26.044C37.9067 24.3666 38.6774 22.78 39.04 21.284C39.448 19.7426 39.652 18.2013 39.652 16.66C39.652 13.7587 38.904 11.2653 37.408 9.17999C35.9574 7.09465 33.8947 5.48532 31.22 4.35198C28.5907 3.17332 25.508 2.58398 21.972 2.58398C17.7107 2.58398 13.948 3.37732 10.684 4.96398L9.80965 3.16525C13.3897 1.42496 17.4602 0.583984 21.972 0.583984C25.7195 0.583984 29.0856 1.20719 32.0193 2.51854C34.9766 3.77512 37.3499 5.5994 39.0415 8.02582C40.8068 10.492 41.652 13.4024 41.652 16.66C41.652 18.3733 41.4259 20.0799 40.9787 21.7759C40.5403 23.5697 39.6421 25.3727 38.3749 27.1789C37.1286 29.0199 35.3404 31.0098 33.0661 33.145C33.0657 33.1454 33.0653 33.1458 33.0649 33.1461L25.7633 40.024H43.216V53H3.24404ZM54.6294 50.656L54.6205 50.6504C51.185 48.4779 48.5223 45.3643 46.6114 41.3956C44.682 37.3883 43.7614 32.6326 43.7614 27.2C43.7614 21.7674 44.682 17.0117 46.6114 13.0044C48.522 9.03609 51.1869 5.94075 54.6294 3.81198C58.052 1.65009 61.9152 0.583984 66.1614 0.583984C70.4453 0.583984 74.3132 1.64648 77.6991 3.81548C81.1388 5.94414 83.8018 9.03827 85.7114 13.0044C87.6409 17.0117 88.5614 21.7674 88.5614 27.2C88.5614 32.6326 87.6409 37.3883 85.7114 41.3956C83.8006 45.3643 81.1378 48.4779 77.7023 50.6504L77.6957 50.6546C74.3085 52.7779 70.4422 53.816 66.1614 53.816C61.9209 53.816 58.061 52.7755 54.6384 50.6616L54.6294 50.656ZM76.6334 5.50798C73.5961 3.55865 70.1054 2.58398 66.1614 2.58398C62.2627 2.58398 58.7721 3.55865 55.6894 5.50798C52.6067 7.41198 50.1814 10.2 48.4134 13.872C46.6454 17.544 45.7614 21.9866 45.7614 27.2C45.7614 32.4133 46.6454 36.856 48.4134 40.528C50.1814 44.2 52.6067 47.0107 55.6894 48.96C58.7721 50.864 62.2627 51.816 66.1614 51.816C70.1054 51.816 73.5961 50.864 76.6334 48.96C79.7161 47.0107 82.1414 44.2 83.9094 40.528C85.6774 36.856 86.5614 32.4133 86.5614 27.2C86.5614 21.9866 85.6774 17.544 83.9094 13.872C82.1414 10.2 79.7161 7.41198 76.6334 5.50798ZM69.7851 39.3392L69.7977 39.3298C70.7766 38.6035 71.673 37.3483 72.3599 35.3282L72.3656 35.3113L72.3716 35.2945C73.0812 33.3236 73.4774 30.6518 73.4774 27.2C73.4774 23.7482 73.0812 21.0764 72.3716 19.1054L72.3656 19.0887L72.3599 19.0718C71.673 17.0517 70.7766 15.7964 69.7977 15.0702L69.7851 15.0608L69.7726 15.0512C68.7919 14.2993 67.6196 13.9 66.1614 13.9C64.7664 13.9 63.5824 14.2898 62.5381 15.0606C61.5893 15.7928 60.6896 17.0609 59.9572 19.0886C59.2864 21.0706 58.9134 23.7499 58.9134 27.2C58.9134 30.6501 59.2864 33.3293 59.9572 35.3113C60.6896 37.339 61.5893 38.6071 62.5381 39.3394C63.5824 40.1102 64.7664 40.5 66.1614 40.5C67.6196 40.5 68.7919 40.1006 69.7726 39.3488L69.7851 39.3392ZM61.3334 40.936C59.9734 39.8933 58.8854 38.2387 58.0694 35.972C57.2987 33.7053 56.9134 30.7813 56.9134 27.2C56.9134 23.6186 57.2987 20.6946 58.0694 18.428C58.8854 16.1613 59.9734 14.5066 61.3334 13.464C62.7387 12.4213 64.3481 11.9 66.1614 11.9C68.0201 11.9 69.6294 12.4213 70.9894 13.464C72.3947 14.5066 73.4827 16.1613 74.2534 18.428C75.0694 20.6946 75.4774 23.6186 75.4774 27.2C75.4774 30.7813 75.0694 33.7053 74.2534 35.972C73.4827 38.2387 72.3947 39.8933 70.9894 40.936C69.6294 41.9787 68.0201 42.5 66.1614 42.5C64.3481 42.5 62.7387 41.9787 61.3334 40.936ZM89.2401 53V42.9979L108.242 25.0518L108.257 25.038C109.644 23.7808 110.572 22.7331 111.121 21.8914C111.727 20.9625 112.067 20.209 112.222 19.619L112.234 19.572L112.249 19.5257C112.474 18.8135 112.564 18.226 112.564 17.748C112.564 16.3603 112.119 15.5471 111.383 14.9894L111.353 14.966L111.323 14.9414C110.555 14.3111 109.208 13.832 106.948 13.832C105.222 13.832 103.647 14.163 102.198 14.8095C100.866 15.4235 99.7027 16.3877 98.7095 17.763L97.5993 19.3001L86.2729 12.0052L87.4 10.3146C89.4318 7.26694 92.2581 4.88982 95.8057 3.16525C99.3858 1.42496 103.456 0.583984 107.968 0.583984C111.716 0.583984 115.082 1.20719 118.015 2.51853C120.973 3.7751 123.346 5.59939 125.038 8.02582C125.785 9.0705 126.368 10.1949 126.791 11.3917L127.509 10.3146C129.541 7.26694 132.367 4.88982 135.915 3.16525C139.495 1.42496 143.566 0.583984 148.077 0.583984C151.825 0.583984 155.191 1.20719 158.125 2.51854C161.082 3.77519 163.456 5.59959 165.147 8.02623C166.912 10.4923 167.758 13.4026 167.758 16.66C167.758 18.3734 167.531 20.0801 167.084 21.7763C166.646 23.5699 165.748 25.3727 164.48 27.1788C163.234 29.0202 161.445 31.0104 159.17 33.1461L151.869 40.024H169.322V53H129.35V42.9979L148.351 25.0518L148.366 25.038C149.754 23.7808 150.681 22.7331 151.23 21.8914C151.836 20.9625 152.176 20.209 152.331 19.619L152.344 19.572L152.358 19.5257C152.583 18.8135 152.674 18.226 152.674 17.748C152.674 16.3603 152.228 15.5471 151.493 14.9894L151.462 14.966L151.432 14.9414C150.665 14.3111 149.317 13.832 147.057 13.832C145.332 13.832 143.756 14.163 142.307 14.8095C140.975 15.4235 139.812 16.3877 138.819 17.763L137.709 19.3001L127.129 12.486C127.477 13.8013 127.648 15.1956 127.648 16.66C127.648 18.3733 127.422 20.0799 126.975 21.7759C126.536 23.5697 125.638 25.3728 124.371 27.1791C123.124 29.0202 121.336 31.0102 119.062 33.1456C119.061 33.1457 119.062 33.1454 119.062 33.1456L111.759 40.024H129.212V53H89.2401ZM106.719 42.024L117.692 31.688C119.913 29.6026 121.591 27.7213 122.724 26.044C123.903 24.3666 124.673 22.78 125.036 21.284C125.444 19.7426 125.648 18.2013 125.648 16.66C125.648 13.7587 124.9 11.2653 123.404 9.17999C121.953 7.09465 119.891 5.48532 117.216 4.35198C114.587 3.17332 111.504 2.58398 107.968 2.58398C103.707 2.58398 99.9441 3.37732 96.6801 4.96398C94.0854 6.22533 91.949 7.84479 90.271 9.82236C89.8382 10.3324 89.4359 10.8663 89.0641 11.424L97.0881 16.592C98.2668 14.96 99.6948 13.7586 101.372 12.988C103.095 12.2173 104.953 11.832 106.948 11.832C109.441 11.832 111.323 12.3533 112.592 13.396C113.907 14.3933 114.564 15.844 114.564 17.748C114.564 18.4733 114.428 19.2667 114.156 20.128C113.929 20.9893 113.476 21.9413 112.796 22.984C112.116 24.0266 111.051 25.2053 109.6 26.52L91.2401 43.86V51H127.212V42.024H106.719ZM141.482 12.988C143.204 12.2173 145.063 11.832 147.057 11.832C149.551 11.832 151.432 12.3533 152.701 13.396C154.016 14.3933 154.674 15.844 154.674 17.748C154.674 18.4733 154.538 19.2667 154.266 20.128C154.039 20.9893 153.585 21.9413 152.906 22.984C152.225 24.0266 151.16 25.2053 149.71 26.52L131.35 43.86V51H167.322V42.024H146.829L157.801 31.688C160.023 29.6026 161.7 27.7213 162.833 26.044C164.012 24.3666 164.783 22.78 165.146 21.284C165.553 19.7426 165.758 18.2013 165.758 16.66C165.758 13.7587 165.01 11.2653 163.514 9.17999C162.063 7.09465 160 5.48532 157.326 4.35198C154.696 3.17332 151.613 2.58398 148.077 2.58398C143.816 2.58398 140.053 3.37732 136.79 4.96398C134.195 6.22533 132.058 7.84479 130.38 9.82236C129.948 10.3324 129.545 10.8663 129.174 11.424L137.197 16.592C138.376 14.96 139.804 13.7586 141.482 12.988Z" fill="#161A14"/>
</svg>
