<svg width="67" height="196" viewBox="0 0 67 196" fill="none" xmlns="http://www.w3.org/2000/svg">
<path opacity="0.2" d="M13.418 0.988281L16.6454 9.02193L21.9916 2.20457L13.418 0.988281ZM17.5311 5.29397C18.515 6.13459 19.5041 7.00682 20.4956 7.90989L21.5062 6.80059C20.503 5.88691 19.502 5.00419 18.506 4.15321L17.5311 5.29397ZM23.3714 10.6107C24.3007 11.5102 25.2296 12.4359 26.1562 13.3873L27.2312 12.3404C26.2944 11.3784 25.355 10.4423 24.4152 9.53254L23.3714 10.6107ZM28.8658 16.2521C29.748 17.2123 30.6259 18.1955 31.4975 19.2012L32.6314 18.2183C31.7502 17.2016 30.8627 16.2076 29.9708 15.2368L28.8658 16.2521ZM34.04 22.2218C34.8636 23.2295 35.6796 24.2573 36.4862 25.3047L37.675 24.389C36.8594 23.3299 36.0344 22.2908 35.2018 21.2721L34.04 22.2218ZM38.8479 28.4662C39.6162 29.5269 40.374 30.6059 41.1196 31.7027L42.3604 30.8588C41.6063 29.7495 40.8399 28.6583 40.063 27.5856L38.8479 28.4662ZM43.282 34.9889C43.9841 36.092 44.6731 37.2116 45.3475 38.3472L46.6374 37.5805C45.955 36.4315 45.2579 35.2987 44.5476 34.1828L43.282 34.9889ZM47.3106 41.775C47.9417 42.9188 48.5574 44.0776 49.1561 45.251L50.4924 44.5684C49.8862 43.3804 49.2629 42.2073 48.6241 41.0496L47.3106 41.775ZM50.889 48.7901C51.4459 49.9771 51.9849 51.1779 52.5047 52.3922L53.8837 51.8009C53.3571 50.5708 52.8111 49.3544 52.2471 48.1522L50.889 48.7901ZM53.9896 56.0344C54.4623 57.2546 54.9151 58.4875 55.3468 59.7325L56.7641 59.2402C56.3265 57.9779 55.8675 56.7283 55.3884 55.4916L53.9896 56.0344ZM56.5704 63.4828C56.9525 64.7313 57.3127 65.9912 57.6501 67.2624L59.0999 66.8765C58.7577 65.587 58.3923 64.309 58.0049 63.0429L56.5704 63.4828ZM58.5874 71.0888C58.8741 72.3649 59.1372 73.6515 59.3756 74.9483L60.8509 74.6759C60.6089 73.3597 60.3419 72.0539 60.051 70.7589L58.5874 71.0888ZM60.0094 78.8273C60.1946 80.1229 60.3548 81.4279 60.4888 82.7422L61.9811 82.5889C61.845 81.2543 61.6824 79.9292 61.4943 78.6138L60.0094 78.8273ZM60.8077 86.6582C60.887 87.9603 60.9403 89.2709 60.9664 90.5898L62.4661 90.5589C62.4396 89.2193 62.3855 87.8882 62.3049 86.5658L60.8077 86.6582ZM60.9631 94.5335C60.9351 95.8327 60.8805 97.1395 60.7982 98.4536L62.2953 98.5461C62.3789 97.2115 62.4344 95.8842 62.4628 94.5645L60.9631 94.5335ZM60.47 102.391C60.3356 103.681 60.1743 104.979 59.985 106.282L61.4694 106.496C61.6616 105.173 61.8255 103.856 61.9619 102.545L60.47 102.391ZM59.3397 110.171C59.1012 111.45 58.8354 112.734 58.5416 114.024L60.0042 114.356C60.3024 113.047 60.5722 111.743 60.8143 110.445L59.3397 110.171ZM57.5937 117.842C57.2552 119.101 56.8897 120.365 56.4963 121.634L57.9291 122.077C58.328 120.79 58.6988 119.508 59.0423 118.231L57.5937 117.842ZM55.265 125.362C54.8327 126.595 54.3739 127.832 53.8879 129.073L55.2846 129.619C55.7771 128.361 56.2422 127.107 56.6804 125.858L55.265 125.362ZM52.395 132.699C51.8767 133.899 51.3327 135.102 50.7624 136.309L52.1186 136.949C52.696 135.727 53.247 134.508 53.772 133.293L52.395 132.699ZM49.0297 139.828C48.4343 140.99 47.8142 142.155 47.1689 143.323L48.4817 144.048C49.1345 142.866 49.762 141.687 50.3646 140.511L49.0297 139.828ZM45.2159 146.736C44.5527 147.856 43.8661 148.979 43.1555 150.104L44.4237 150.905C45.1418 149.767 45.8359 148.632 46.5065 147.5L45.2159 146.736ZM40.9973 153.419C40.2759 154.495 39.5325 155.573 38.7665 156.652L39.9897 157.52C40.7632 156.429 41.5141 155.341 42.2429 154.254L40.9973 153.419ZM36.413 159.881C35.6427 160.91 34.8516 161.941 34.0396 162.973L35.2184 163.9C36.0377 162.858 36.836 161.818 37.6136 160.779L36.413 159.881ZM31.5404 166.075C30.7154 167.075 29.8704 168.077 29.0053 169.079L30.1408 170.059C31.013 169.048 31.865 168.038 32.6972 167.029L31.5404 166.075ZM26.3986 172.037C25.5142 173.019 24.6102 174.002 23.6864 174.987L24.7799 176.013C25.7107 175.021 26.6216 174.03 27.513 173.04L26.3986 172.037ZM20.9955 177.8C20.0804 178.738 19.1471 179.678 18.1954 180.618L19.2492 181.685C20.2075 180.738 21.1474 179.792 22.0691 178.847L20.9955 177.8ZM15.3439 183.385C14.4091 184.276 13.4575 185.168 12.489 186.06L13.5049 187.163C14.4796 186.265 15.4374 185.367 16.3784 184.47L15.3439 183.385ZM9.53234 188.739C9.03106 189.186 8.52549 189.633 8.01561 190.08L9.004 191.207C9.51693 190.758 10.0255 190.308 10.5299 189.858L9.53234 188.739Z" fill="#161A14"/>
<path opacity="0.8" d="M8.84766 1.20947L12.0799 9.24394L17.4218 2.42751L8.84766 1.20947ZM13.0606 5.59242C14.0671 6.45067 15.0785 7.34038 16.092 8.26075L17.1004 7.1503C16.0754 6.21949 15.0523 5.31947 14.0339 4.45104L13.0606 5.59242ZM19.0305 11.011C19.982 11.9286 20.933 12.8723 21.8812 13.8417L22.9535 12.7927C21.995 11.813 21.0337 10.8589 20.0717 9.93124L19.0305 11.011ZM24.6561 16.7617C25.5601 17.7408 26.4594 18.7429 27.352 19.7673L28.4829 18.7819C27.5808 17.7465 26.6719 16.7337 25.7582 15.7442L24.6561 16.7617ZM29.9536 22.8411C30.7983 23.8688 31.6349 24.9166 32.4617 25.984L33.6476 25.0655C32.8118 23.9864 31.9661 22.9273 31.1124 21.8886L29.9536 22.8411ZM34.8831 29.2067C35.6704 30.2872 36.4465 31.3859 37.2098 32.5024L38.4481 31.6558C37.6762 30.5268 36.8914 29.4158 36.0955 28.3234L34.8831 29.2067ZM39.4271 35.8533C40.1474 36.9787 40.8538 38.1206 41.5449 39.2786L42.833 38.5098C42.1337 37.3383 41.4191 36.1831 40.6905 35.0447L39.4271 35.8533ZM43.5562 42.774C44.2028 43.9408 44.8332 45.1226 45.4457 46.3188L46.7809 45.6352C46.1607 44.424 45.5226 43.2278 44.8682 42.0469L43.5562 42.774ZM47.2195 49.9313C47.7891 51.1427 48.3398 52.3679 48.8702 53.6064L50.2491 53.0158C49.7116 51.761 49.1538 50.52 48.577 49.2931L47.2195 49.9313ZM50.3855 57.3254C50.8676 58.5722 51.3287 59.8316 51.7673 61.1031L53.1853 60.6139C52.7406 59.3247 52.2732 58.0481 51.7846 56.7845L50.3855 57.3254ZM53.0079 64.9314C53.395 66.2078 53.7589 67.4956 54.0984 68.7945L55.5497 68.4151C55.2051 67.0972 54.8359 65.7908 54.4434 64.4961L53.0079 64.9314ZM55.0385 72.7049C55.3246 74.0086 55.5856 75.3227 55.8203 76.6468L57.2973 76.385C57.059 75.0406 56.794 73.7067 56.5037 72.3834L55.0385 72.7049ZM56.4394 80.6115C56.6182 81.9355 56.7702 83.2689 56.8943 84.6113L58.388 84.4732C58.2619 83.1097 58.1075 81.7554 57.9259 80.4108L56.4394 80.6115ZM57.1789 88.6097C57.2452 89.9396 57.2837 91.2778 57.2932 92.6239L58.7932 92.6133C58.7835 91.2456 58.7444 89.886 58.677 88.535L57.1789 88.6097ZM57.2352 96.6471C57.1875 97.9723 57.1113 99.3048 57.0056 100.644L58.501 100.762C58.6084 99.4014 58.6858 98.0475 58.7342 96.701L57.2352 96.6471ZM56.6023 104.655C56.4418 105.969 56.2523 107.29 56.0331 108.616L57.5131 108.86C57.7357 107.513 57.9281 106.172 58.0913 104.837L56.6023 104.655ZM55.2943 112.569C55.0234 113.868 54.7234 115.173 54.3936 116.483L55.8482 116.849C56.183 115.519 56.4876 114.195 56.7627 112.875L55.2943 112.569ZM53.3362 120.353C52.9598 121.629 52.5547 122.91 52.1201 124.196L53.541 124.677C53.982 123.372 54.393 122.072 54.7749 120.777L53.3362 120.353ZM50.7665 127.962C50.2918 129.209 49.789 130.459 49.2574 131.713L50.6384 132.298C51.1772 131.027 51.6869 129.76 52.1682 128.496L50.7665 127.962ZM47.6328 135.363C47.0687 136.573 46.4774 137.786 45.8582 139.002L47.195 139.683C47.8219 138.451 48.4208 137.223 48.9923 135.997L47.6328 135.363ZM43.9875 142.532C43.3438 143.7 42.6741 144.871 41.9779 146.044L43.268 146.81C43.9722 145.623 44.6498 144.438 45.3012 143.256L43.9875 142.532ZM39.8824 149.457C39.1696 150.579 38.4323 151.704 37.6699 152.831L38.9123 153.671C39.6827 152.533 40.4281 151.396 41.1487 150.261L39.8824 149.457ZM35.3659 156.135C34.5945 157.209 33.8001 158.285 32.9822 159.363L34.1771 160.27C35.0029 159.182 35.8052 158.095 36.5844 157.01L35.3659 156.135ZM30.4799 162.573C29.6599 163.598 28.8184 164.623 27.9552 165.651L29.1035 166.616C29.9744 165.579 30.8235 164.544 31.651 163.51L30.4799 162.573ZM25.2996 168.736C24.4271 169.726 23.5341 170.717 22.6204 171.709L23.7237 172.725C24.6448 171.725 25.5451 170.726 26.425 169.728L25.2996 168.736ZM19.8614 174.641C18.9281 175.612 17.9747 176.584 17.0008 177.557L18.0608 178.618C19.0419 177.638 20.0025 176.659 20.943 175.681L19.8614 174.641ZM14.163 180.338C13.1984 181.265 12.2149 182.193 11.2124 183.122L12.2317 184.222C13.241 183.287 14.2312 182.353 15.2026 181.419L14.163 180.338ZM8.21614 185.848C7.23384 186.725 6.23434 187.604 5.21741 188.482L6.19809 189.617C7.22129 188.733 8.2271 187.85 9.21572 186.966L8.21614 185.848ZM2.11415 191.119C1.58818 191.559 1.0578 191.999 0.522988 192.438L1.47565 193.597C2.01355 193.155 2.54702 192.712 3.0761 192.27L2.11415 191.119Z" fill="#161A14"/>
</svg>
