<svg width="32" height="32" viewBox="0 0 32 32" fill="none" xmlns="http://www.w3.org/2000/svg">
<path d="M20.3344 21.0301L24.4013 32C22.1538 30.0201 19.2107 28.8428 16 28.8428C12.7893 28.8428 9.84615 30.0201 7.59866 31.9465L11.6656 20.9766C11.8261 20.5485 11.398 20.1204 10.9699 20.2809L0 24.3478C1.97993 22.1538 3.15719 19.2107 3.15719 16C3.15719 12.7893 1.97993 9.84615 0 7.59866L10.9699 11.7191C11.398 11.8796 11.8261 11.4515 11.6656 11.0234L7.59866 0.0535119C9.84615 1.97993 12.7893 3.15719 16 3.15719C19.2107 3.15719 22.1538 1.97993 24.4013 0L20.3344 10.9699C20.1739 11.398 20.602 11.8261 21.0301 11.6656L32 7.54515C30.0201 9.84615 28.8428 12.7893 28.8428 16C28.8428 19.2107 30.0201 22.1538 32 24.4013L21.0301 20.3344C20.5485 20.1739 20.1739 20.5485 20.3344 21.0301Z" fill="#F9DEB0"/>
</svg>
