<svg width="64" height="64" viewBox="0 0 64 64" fill="none" xmlns="http://www.w3.org/2000/svg">
<path d="M32.4004 51.6C31.3071 51.6 30.4004 50.6933 30.4004 49.6V44C30.4004 42.9067 31.3071 42 32.4004 42C33.4937 42 34.4004 42.9067 34.4004 44V49.6C34.4004 50.6933 33.4937 51.6 32.4004 51.6Z" fill="#F3F4F3"/>
<path d="M47.7331 60.6666H17.0664V56C17.0664 51.9466 20.3464 48.6666 24.3997 48.6666H40.3997C44.4531 48.6666 47.7331 51.9466 47.7331 56V60.6666ZM21.0664 56.6666H43.7331V56C43.7331 54.16 42.2397 52.6666 40.3997 52.6666H24.3997C22.5597 52.6666 21.0664 54.16 21.0664 56V56.6666Z" fill="#F3F4F3"/>
<path d="M48.4004 60.6666H16.4004C15.3071 60.6666 14.4004 59.76 14.4004 58.6666C14.4004 57.5733 15.3071 56.6666 16.4004 56.6666H48.4004C49.4937 56.6666 50.4004 57.5733 50.4004 58.6666C50.4004 59.76 49.4937 60.6666 48.4004 60.6666Z" fill="#F3F4F3"/>
<path d="M49.1469 33.1733C48.5869 33.1733 48.0269 32.9333 47.6269 32.48C47.1202 31.8933 46.9869 31.0666 47.3069 30.3733C48.2136 28.2933 48.6669 26.08 48.6669 23.76V15.76C48.6669 14.8266 48.5069 13.92 48.1869 12.96C48.1602 12.88 48.1336 12.7733 48.1069 12.6666C48.0269 12.2666 48.0002 11.8666 48.0002 11.4933C48.0002 10.4 48.9069 9.49329 50.0002 9.49329H51.6002C56.3736 9.49329 60.2669 13.4933 60.2669 18.4266C60.2669 22.5066 58.5869 26.5333 55.6802 29.44C55.6269 29.4933 55.4669 29.6266 55.4402 29.6533C53.8669 30.96 52.0802 32.4266 49.6802 33.0933C49.4936 33.1466 49.3336 33.1733 49.1469 33.1733ZM52.4802 13.5733C52.6136 14.2933 52.6669 15.04 52.6669 15.76V23.76C52.6669 24.8533 52.5869 25.8933 52.4269 26.96C52.5869 26.8266 52.7202 26.72 52.8802 26.5866C55.0136 24.4533 56.2669 21.4666 56.2669 18.4266C56.2669 16.0266 54.6402 14 52.4802 13.5733Z" fill="#F3F4F3"/>
<path d="M14.8801 33.0666C14.6667 33.0666 14.4801 33.04 14.2667 32.96C12.0801 32.2666 10.0267 30.9866 8.32006 29.28C5.2534 25.8933 3.7334 22.1866 3.7334 18.2666C3.7334 13.4133 7.54673 9.59998 12.4001 9.59998H14.1334C14.8001 9.59998 15.4401 9.94664 15.8134 10.5066C16.1867 11.0666 16.2401 11.7866 15.9734 12.4C15.5467 13.36 15.3334 14.4533 15.3334 15.6V23.6C15.3334 25.8933 15.7867 28.1333 16.7201 30.2666C17.0401 30.9866 16.8801 31.8133 16.3734 32.4C15.9734 32.8266 15.4401 33.0666 14.8801 33.0666ZM11.4667 13.68C9.30673 14.1066 7.7334 15.9733 7.7334 18.2666C7.7334 21.1733 8.90673 23.9733 11.2267 26.5333C11.3334 26.6666 11.4667 26.7733 11.6001 26.88C11.4134 25.7866 11.3334 24.6933 11.3334 23.6V15.6C11.3334 14.96 11.3867 14.32 11.4667 13.68Z" fill="#F3F4F3"/>
<path d="M31.9997 44.6667C20.613 44.6667 11.333 35.3867 11.333 24V16C11.333 9.01337 17.013 3.33337 23.9997 3.33337H39.9997C46.9863 3.33337 52.6663 9.01337 52.6663 16V24C52.6663 35.3867 43.3863 44.6667 31.9997 44.6667ZM23.9997 7.33337C19.2263 7.33337 15.333 11.2267 15.333 16V24C15.333 33.2 22.7997 40.6667 31.9997 40.6667C41.1997 40.6667 48.6663 33.2 48.6663 24V16C48.6663 11.2267 44.773 7.33337 39.9997 7.33337H23.9997Z" fill="#F3F4F3"/>
</svg>
