<svg width="154" height="36" viewBox="0 0 154 36" fill="none" xmlns="http://www.w3.org/2000/svg">
<path d="M52.0709 8.98249V9.49249C51.5087 9.50949 51.0828 9.57749 50.7932 9.69649C50.5036 9.79849 50.3077 10.0025 50.2055 10.3085C50.1033 10.5975 50.0522 11.0565 50.0522 11.6855V24.3335C50.0522 24.9455 50.1033 25.4045 50.2055 25.7105C50.3077 26.0165 50.5036 26.2205 50.7932 26.3225C51.0828 26.4245 51.5087 26.4925 52.0709 26.5265V27.0365C51.662 27.0025 51.1425 26.9855 50.5121 26.9855C49.8988 26.9685 49.2685 26.96 48.6211 26.96C47.9056 26.96 47.2327 26.9685 46.6024 26.9855C45.9891 26.9855 45.4866 27.0025 45.0947 27.0365V26.5265C45.6739 26.4925 46.1084 26.4245 46.398 26.3225C46.6876 26.2205 46.875 26.0165 46.9602 25.7105C47.0624 25.4045 47.1135 24.9455 47.1135 24.3335V11.6855C47.1135 11.0565 47.0624 10.5975 46.9602 10.3085C46.875 10.0025 46.6791 9.79849 46.3724 9.69649C46.0828 9.57749 45.6569 9.50949 45.0947 9.49249V8.98249C45.4866 8.99949 45.9891 9.01649 46.6024 9.03349C47.2327 9.05049 47.9056 9.05899 48.6211 9.05899C49.2685 9.05899 49.8988 9.05049 50.5121 9.03349C51.1425 9.01649 51.662 8.99949 52.0709 8.98249Z" fill="#1A1311"/>
<path d="M62.6396 13.5215C63.321 13.5215 63.8747 13.615 64.3006 13.802C64.7435 13.972 65.1098 14.21 65.3994 14.516C65.706 14.839 65.919 15.2555 66.0382 15.7655C66.1745 16.2755 66.2427 16.964 66.2427 17.831V24.665C66.2427 25.379 66.379 25.8635 66.6515 26.1185C66.9411 26.3735 67.4181 26.501 68.0825 26.501V27.0365C67.7929 27.0195 67.3415 27.0025 66.7282 26.9855C66.1149 26.9515 65.5101 26.9345 64.9139 26.9345C64.3347 26.9345 63.7554 26.9515 63.1762 26.9855C62.614 27.0025 62.1881 27.0195 61.8985 27.0365V26.501C62.4777 26.501 62.8866 26.3735 63.1251 26.1185C63.3636 25.8635 63.4829 25.379 63.4829 24.665V17.117C63.4829 16.624 63.4403 16.182 63.3551 15.791C63.2699 15.383 63.091 15.06 62.8185 14.822C62.5459 14.567 62.137 14.4395 61.5919 14.4395C60.9616 14.4395 60.3994 14.618 59.9053 14.975C59.4283 15.332 59.045 15.825 58.7554 16.454C58.4828 17.066 58.3466 17.7545 58.3466 18.5195V24.665C58.3466 25.379 58.4658 25.8635 58.7043 26.1185C58.9598 26.3735 59.3687 26.501 59.9309 26.501V27.0365C59.6583 27.0195 59.2409 27.0025 58.6788 26.9855C58.1336 26.9515 57.5629 26.9345 56.9666 26.9345C56.3874 26.9345 55.7827 26.9515 55.1523 26.9855C54.522 27.0025 54.0535 27.0195 53.7469 27.0365V26.501C54.4113 26.501 54.8798 26.3735 55.1523 26.1185C55.4419 25.8635 55.5867 25.379 55.5867 24.665V16.658C55.5867 15.893 55.459 15.332 55.2034 14.975C54.9479 14.601 54.4624 14.414 53.7469 14.414V13.8785C54.292 13.9295 54.8201 13.955 55.3312 13.955C55.9104 13.955 56.4471 13.9295 56.9411 13.8785C57.4522 13.8105 57.9207 13.717 58.3466 13.598V16.3775C58.7895 15.3235 59.3943 14.584 60.1609 14.159C60.9445 13.734 61.7708 13.5215 62.6396 13.5215Z" fill="#1A1311"/>
<path d="M73.6159 9.67099V13.904H77.1423V14.414H73.6159V24.4355C73.6159 25.1325 73.7437 25.6255 73.9992 25.9145C74.2548 26.2035 74.621 26.348 75.098 26.348C75.541 26.348 75.9328 26.1695 76.2735 25.8125C76.6313 25.4555 76.9379 24.852 77.1935 24.002L77.679 24.1805C77.4745 25.0815 77.1083 25.8465 76.5802 26.4755C76.0691 27.0875 75.311 27.3935 74.3059 27.3935C73.7267 27.3935 73.2411 27.317 72.8493 27.164C72.4575 27.028 72.1168 26.824 71.8272 26.552C71.4524 26.161 71.1968 25.6935 71.0605 25.1495C70.9243 24.6055 70.8561 23.883 70.8561 22.982V14.414H68.5052V13.904H70.8561V10.181C71.3842 10.164 71.8783 10.1215 72.3382 10.0535C72.7982 9.96849 73.2241 9.84099 73.6159 9.67099Z" fill="#1A1311"/>
<path d="M84.4651 13.5215C85.9643 13.5215 87.1397 13.972 87.9915 14.873C88.8433 15.774 89.2692 17.202 89.2692 19.157H80.4532L80.4021 18.6725H86.5605C86.5775 17.8395 86.5094 17.0745 86.3561 16.3775C86.2028 15.6635 85.9643 15.094 85.6406 14.669C85.3169 14.244 84.891 14.0315 84.3629 14.0315C83.6303 14.0315 82.9915 14.4225 82.4464 15.2045C81.9182 15.9695 81.5946 17.202 81.4753 18.902L81.552 19.0295C81.5349 19.2675 81.5179 19.531 81.5009 19.82C81.4838 20.092 81.4753 20.364 81.4753 20.636C81.4753 21.809 81.6542 22.795 82.0119 23.594C82.3697 24.393 82.8382 24.9965 83.4174 25.4045C83.9966 25.7955 84.5844 25.991 85.1806 25.991C85.6406 25.991 86.0835 25.923 86.5094 25.787C86.9523 25.634 87.3697 25.3875 87.7615 25.0475C88.1534 24.6905 88.5026 24.206 88.8092 23.594L89.3203 23.798C89.1159 24.376 88.8007 24.9455 88.3748 25.5065C87.9489 26.0675 87.4038 26.5265 86.7394 26.8835C86.075 27.2235 85.2999 27.3935 84.414 27.3935C83.2215 27.3935 82.1823 27.13 81.2964 26.603C80.4106 26.059 79.7291 25.2855 79.2521 24.2825C78.7751 23.2795 78.5366 22.0895 78.5366 20.7125C78.5366 19.1995 78.7836 17.9075 79.2777 16.8365C79.7717 15.7655 80.4617 14.9495 81.3475 14.3885C82.2504 13.8105 83.2896 13.5215 84.4651 13.5215Z" fill="#1A1311"/>
<path d="M99.2078 13.5215C99.7019 13.5215 100.119 13.6235 100.46 13.8275C100.818 14.0315 101.082 14.295 101.252 14.618C101.44 14.924 101.533 15.2725 101.533 15.6635C101.533 16.1565 101.38 16.5815 101.073 16.9385C100.784 17.2785 100.392 17.4485 99.8978 17.4485C99.4719 17.4485 99.1056 17.321 98.799 17.066C98.5094 16.811 98.3646 16.4625 98.3646 16.0205C98.3646 15.6465 98.4583 15.332 98.6456 15.077C98.8501 14.805 99.0801 14.5925 99.3356 14.4395C99.1652 14.3035 98.9608 14.244 98.7223 14.261C98.2623 14.278 97.8364 14.431 97.4446 14.72C97.0528 14.992 96.7206 15.349 96.448 15.791C96.1754 16.216 95.9625 16.675 95.8092 17.168C95.6559 17.661 95.5792 18.12 95.5792 18.545V24.41C95.5792 25.243 95.8092 25.804 96.2691 26.093C96.7291 26.365 97.368 26.501 98.1857 26.501V27.0365C97.7938 27.0195 97.2317 27.0025 96.4991 26.9855C95.7836 26.9515 95.0255 26.9345 94.2248 26.9345C93.6116 26.9345 92.9983 26.9515 92.385 26.9855C91.7717 27.0025 91.3032 27.0195 90.9795 27.0365V26.501C91.6439 26.501 92.1124 26.3735 92.385 26.1185C92.6746 25.8635 92.8194 25.379 92.8194 24.665V16.658C92.8194 15.893 92.6916 15.332 92.4361 14.975C92.1805 14.601 91.695 14.414 90.9795 14.414V13.8785C91.5247 13.9295 92.0528 13.955 92.5638 13.955C93.1431 13.955 93.6797 13.9295 94.1737 13.8785C94.6848 13.8105 95.1533 13.717 95.5792 13.598V16.5305C95.7836 16.0375 96.0562 15.5615 96.3969 15.1025C96.7376 14.6435 97.1465 14.2695 97.6235 13.9805C98.1005 13.6745 98.6286 13.5215 99.2078 13.5215Z" fill="#1A1311"/>
<path d="M109.699 8.98249C112.85 8.98249 115.193 9.74749 116.726 11.2775C118.259 12.7905 119.026 14.9665 119.026 17.8055C119.026 19.6585 118.651 21.282 117.902 22.676C117.152 24.053 116.062 25.124 114.631 25.889C113.217 26.654 111.496 27.0365 109.469 27.0365C109.213 27.0365 108.864 27.028 108.421 27.011C107.995 26.994 107.552 26.9855 107.092 26.9855C106.632 26.9685 106.215 26.96 105.84 26.96C105.193 26.96 104.554 26.9685 103.924 26.9855C103.31 26.9855 102.808 27.0025 102.416 27.0365V26.5265C102.995 26.4925 103.43 26.4245 103.719 26.3225C104.009 26.2205 104.196 26.0165 104.281 25.7105C104.384 25.4045 104.435 24.9455 104.435 24.3335V11.6855C104.435 11.0565 104.384 10.5975 104.281 10.3085C104.196 10.0025 104 9.79849 103.694 9.69649C103.404 9.57749 102.978 9.50949 102.416 9.49249V8.98249C102.808 8.99949 103.31 9.02499 103.924 9.05899C104.554 9.07599 105.176 9.07599 105.789 9.05899C106.402 9.04199 107.084 9.02499 107.833 9.00799C108.6 8.99099 109.222 8.98249 109.699 8.98249ZM109.264 9.44149C108.481 9.44149 107.97 9.58599 107.731 9.87499C107.493 10.164 107.373 10.7505 107.373 11.6345V24.3845C107.373 25.2685 107.493 25.855 107.731 26.144C107.987 26.433 108.506 26.5775 109.29 26.5775C111.011 26.5775 112.348 26.246 113.302 25.583C114.256 24.903 114.929 23.917 115.321 22.625C115.713 21.333 115.908 19.7605 115.908 17.9075C115.908 16.0035 115.695 14.431 115.27 13.19C114.844 11.932 114.145 10.997 113.174 10.385C112.22 9.75599 110.917 9.44149 109.264 9.44149Z" fill="#1A1311"/>
<path d="M128.373 8.88049L134.609 24.8945C134.847 25.5235 135.12 25.9485 135.426 26.1695C135.75 26.3905 136.048 26.5095 136.321 26.5265V27.0365C135.912 27.0025 135.426 26.9855 134.864 26.9855C134.319 26.9685 133.765 26.96 133.203 26.96C132.488 26.96 131.823 26.9685 131.21 26.9855C130.597 26.9855 130.103 27.0025 129.728 27.0365V26.5265C130.597 26.4925 131.142 26.348 131.363 26.093C131.602 25.821 131.551 25.2515 131.21 24.3845L126.61 11.9915L127.019 11.5325L122.777 22.5995C122.471 23.3645 122.283 24.002 122.215 24.512C122.164 25.022 122.206 25.4215 122.343 25.7105C122.496 25.9995 122.752 26.2035 123.109 26.3225C123.467 26.4415 123.91 26.5095 124.438 26.5265V27.0365C123.927 27.0025 123.408 26.9855 122.879 26.9855C122.368 26.9685 121.883 26.96 121.423 26.96C121.014 26.96 120.648 26.9685 120.324 26.9855C120.017 26.9855 119.736 27.0025 119.481 27.0365V26.5265C119.839 26.4415 120.196 26.229 120.554 25.889C120.912 25.549 121.252 24.971 121.576 24.155L127.505 8.88049C127.641 8.88049 127.786 8.88049 127.939 8.88049C128.092 8.88049 128.237 8.88049 128.373 8.88049ZM131.057 19.6925V20.2025H123.442L123.697 19.6925H131.057Z" fill="#1A1311"/>
<path d="M145.593 8.62549C147.262 8.62549 148.727 8.99099 149.988 9.72199C151.265 10.453 152.254 11.507 152.952 12.884C153.65 14.244 154 15.9015 154 17.8565C154 19.7605 153.642 21.4265 152.926 22.8545C152.211 24.2825 151.214 25.396 149.937 26.195C148.659 26.994 147.202 27.3935 145.567 27.3935C143.88 27.3935 142.407 27.028 141.146 26.297C139.885 25.566 138.906 24.512 138.207 23.135C137.509 21.758 137.16 20.1005 137.16 18.1625C137.16 16.2585 137.518 14.5925 138.233 13.1645C138.966 11.7365 139.962 10.623 141.223 9.82399C142.483 9.02499 143.94 8.62549 145.593 8.62549ZM145.49 9.08449C144.434 9.08449 143.514 9.46699 142.73 10.232C141.947 10.997 141.342 12.051 140.916 13.394C140.49 14.737 140.277 16.2925 140.277 18.0605C140.277 19.8625 140.516 21.435 140.993 22.778C141.47 24.104 142.117 25.1325 142.935 25.8635C143.753 26.5775 144.664 26.9345 145.669 26.9345C146.725 26.9345 147.637 26.552 148.403 25.787C149.187 25.022 149.792 23.968 150.218 22.625C150.661 21.265 150.882 19.7095 150.882 17.9585C150.882 16.1395 150.635 14.567 150.141 13.241C149.664 11.915 149.017 10.895 148.199 10.181C147.398 9.44999 146.495 9.08449 145.49 9.08449Z" fill="#1A1311"/>
<path d="M35.9531 7.28259L35.1257 7.5829L30.4623 9.3097L25.3477 11.2242C25.0468 11.3368 24.746 11.0365 24.8588 10.7362L26.7768 5.63087L28.5067 1.01356L28.8076 0.187696C28.2435 0.0750782 27.6794 0 27.0776 0H9.02588C8.42415 0 7.86004 0.0750782 7.29592 0.150156L7.59678 0.976017L9.32674 5.63087L11.2447 10.7737C11.3576 11.074 11.0567 11.3743 10.7558 11.2617L5.64117 9.3097L1.01541 7.5829L0.188039 7.28259C0.0376078 7.84567 0 8.40876 0 9.00939V27.0282C0 27.6288 0.0376078 28.1919 0.150431 28.755L0.977803 28.4546L5.64117 26.7278L10.7558 24.8133C11.0567 24.7007 11.3576 25.001 11.2447 25.3014L9.32674 30.4067L7.59678 35.024L7.29592 35.8498C7.86004 35.9625 8.42415 36 9.02588 36H27.0776C27.6794 36 28.2435 35.9249 28.8076 35.8498L28.5067 35.024L26.7768 30.4067L24.8588 25.3014C24.746 25.001 25.0468 24.7007 25.3477 24.8133L30.4623 26.7278L35.0881 28.4546L35.9155 28.755C36.0283 28.1919 36.0659 27.6288 36.0659 27.0282V9.00939C36.1035 8.40876 36.0283 7.84567 35.9531 7.28259ZM21.5493 21.0594C21.2484 20.9468 20.9476 21.2471 21.0604 21.5474L23.9186 29.243C22.3767 27.854 20.3082 27.0282 18.0518 27.0282C15.7953 27.0282 13.7269 27.854 12.1473 29.2054L15.0055 21.5099C15.1183 21.2096 14.8175 20.9093 14.5166 21.0219L6.80702 23.8749C8.19851 22.3358 9.02588 20.2711 9.02588 18.0188C9.02588 15.7664 8.19851 13.7018 6.80702 12.1251L14.5166 15.0156C14.8175 15.1283 15.1183 14.8279 15.0055 14.5276L12.1473 6.83212C13.7269 8.18353 15.7953 9.00939 18.0518 9.00939C20.3082 9.00939 22.3767 8.18353 23.9562 6.79458L21.098 14.4901C20.9852 14.7904 21.286 15.0907 21.5869 14.9781L29.2965 12.0876C27.905 13.7018 27.0776 15.7664 27.0776 18.0188C27.0776 20.2711 27.905 22.3358 29.2965 23.9124L21.5493 21.0594Z" fill="#F9DEB0"/>
<path d="M35.2389 5.18028L30.4627 6.98216L29.1089 7.5077C28.808 7.62032 28.5071 7.32001 28.62 7.0197L29.1465 5.63075L30.9516 0.863281C32.832 1.72668 34.374 3.30332 35.2389 5.18028Z" fill="#F9DEB0"/>
<path d="M6.99531 7.47016L5.64143 6.98216L0.865234 5.18028C1.73021 3.30332 3.30974 1.72668 5.19014 0.863281L6.99531 5.63075L7.52182 7.0197C7.59704 7.32001 7.33378 7.58278 6.99531 7.47016Z" fill="#F9DEB0"/>
<path d="M7.48373 29.055L6.99483 30.4065L5.18966 35.2115C3.27166 34.3105 1.72974 32.7714 0.827148 30.8569L5.64095 29.055L6.99483 28.5295C7.3333 28.4544 7.59656 28.7172 7.48373 29.055Z" fill="#F9DEB0"/>
<path d="M35.2385 30.8575C34.3359 32.772 32.7939 34.3111 30.8759 35.2121L29.1084 30.4071L28.5819 29.0557C28.469 28.7554 28.7699 28.455 29.0708 28.5677L30.4247 29.0932L35.2385 30.8575Z" fill="#F9DEB0"/>
<path d="M21.0976 21.5478L23.9558 29.2433C22.3763 27.8544 20.3078 27.0285 18.0514 27.0285C15.7949 27.0285 13.7265 27.8544 12.147 29.2058L15.0051 21.5103C15.118 21.2099 14.8171 20.9096 14.5162 21.0222L6.80664 23.8752C8.19813 22.3361 9.0255 20.2715 9.0255 18.0191C9.0255 15.7668 8.19813 13.7021 6.80664 12.1255L14.5162 15.016C14.8171 15.1286 15.118 14.8283 15.0051 14.528L12.147 6.83246C13.7265 8.18387 15.7949 9.00973 18.0514 9.00973C20.3078 9.00973 22.3763 8.18387 23.9558 6.79492L21.0976 14.4904C20.9848 14.7908 21.2857 15.0911 21.5865 14.9784L29.2961 12.0879C27.9046 13.7021 27.0773 15.7668 27.0773 18.0191C27.0773 20.2715 27.9046 22.3361 29.2961 23.9128L21.5865 21.0598C21.248 20.9472 20.9848 21.2099 21.0976 21.5478Z" fill="#1A1311"/>
<path d="M35.9525 7.28337L35.1252 7.58368L30.4618 9.31048L25.3471 11.225C25.0463 11.3376 24.7454 11.0373 24.8582 10.737L26.7762 5.63165L28.5062 1.01434L28.8071 0.188477C29.5592 0.338633 30.2362 0.563868 30.9131 0.864181L29.1079 5.63165L28.5814 7.02059C28.4686 7.32091 28.7695 7.62122 29.0703 7.5086L30.4242 6.98306L35.2004 5.18118C35.5765 5.85688 35.8021 6.57013 35.9525 7.28337Z" fill="#1A1311"/>
<path d="M10.7553 11.225L5.64064 9.31048L1.01487 7.58368L0.1875 7.28337C0.337931 6.53259 0.563578 5.85688 0.864441 5.18118L5.64064 6.98305L6.99452 7.5086C7.29538 7.62122 7.59624 7.32091 7.48342 7.02059L6.99452 5.63165L5.18934 0.86418C5.86628 0.563868 6.54322 0.338633 7.29538 0.188477L7.59624 1.01434L9.3262 5.63165L11.2442 10.7745C11.357 11.0748 11.0938 11.3376 10.7553 11.225Z" fill="#1A1311"/>
<path d="M11.2442 25.3021L9.3262 30.4074L7.59624 35.0247L7.29538 35.8506C6.54322 35.7004 5.86628 35.4752 5.18934 35.1748L6.99452 30.4074L7.52103 29.056C7.63385 28.7557 7.33299 28.4553 7.03213 28.568L5.64064 29.056L0.864441 30.8578C0.563578 30.1821 0.337931 29.5064 0.1875 28.7557L1.01487 28.4553L5.64064 26.7285L10.7553 24.8141C11.0938 24.7014 11.357 24.9642 11.2442 25.3021Z" fill="#1A1311"/>
<path d="M28.619 29.0562L29.1455 30.4076L30.9507 35.175C30.2738 35.4754 29.5968 35.7381 28.8447 35.8507L28.5438 35.0249L26.7762 30.4076L24.8582 25.3023C24.7454 25.0019 25.0463 24.7016 25.3471 24.8142L30.4618 26.7287L35.0876 28.4555L35.9149 28.7559C35.7645 29.5066 35.5389 30.1823 35.238 30.858L30.4618 29.0562L29.1079 28.5306C28.7695 28.4555 28.5062 28.7183 28.619 29.0562Z" fill="#1A1311"/>
</svg>
