<svg width="371" height="48" viewBox="0 0 371 48" fill="none" xmlns="http://www.w3.org/2000/svg">
<path d="M15.5172 21.4403L0.242673 36.5279C0.0785226 35.8509 -0.00293559 35.1566 8.0791e-05 34.4601V5.75317L15.5172 21.4403Z" fill="#55A432"/>
<path d="M36.9448 43.1236C36.1383 43.3513 35.304 43.4656 34.4659 43.4631H30.73C28.9798 43.4639 27.2542 43.8747 25.6916 44.6626C24.129 45.4505 22.7729 46.5935 21.732 47.9999C20.6938 46.5929 19.3394 45.4493 17.778 44.6613C16.2167 43.8733 14.492 43.4629 12.7429 43.4631H8.99814C8.04397 43.4679 7.09526 43.319 6.18848 43.0222L21.7011 27.701L36.9448 43.1236Z" fill="#55A432"/>
<path d="M37.2081 0L21.7704 15.2551L6.68115 0H37.2081Z" fill="#55A432"/>
<path d="M43.4731 6.17194V34.46C43.4697 35.2743 43.3615 36.0849 43.1512 36.8717L27.9561 21.5064L43.4731 6.17194Z" fill="#55A432"/>
<path d="M23.8748 6.76797C23.8722 7.55425 23.6757 8.32776 23.3025 9.01994C22.9294 9.71212 22.3911 10.3016 21.7355 10.7361C21.0768 10.2993 20.5365 9.70636 20.1627 9.01015C19.7889 8.31393 19.5933 7.53607 19.5933 6.74593C19.5933 5.95579 19.7889 5.17792 20.1627 4.48171C20.5365 3.78549 21.0768 3.19257 21.7355 2.7558C22.3976 3.19411 22.94 3.79051 23.3135 4.49105C23.687 5.19159 23.8799 5.97416 23.8748 6.76797Z" fill="black"/>
<path d="M23.875 37.0087C23.8757 37.7992 23.6807 38.5777 23.3074 39.2746C22.9342 39.9716 22.3943 40.5654 21.7358 41.0032C21.0771 40.5659 20.5368 39.9726 20.1631 39.276C19.7893 38.5795 19.5937 37.8013 19.5938 37.0109C19.5938 36.2205 19.7893 35.4423 20.1631 34.7458C20.5368 34.0492 21.0771 33.4558 21.7358 33.0186C22.3945 33.4551 22.9347 34.0481 23.308 34.7444C23.6813 35.4407 23.8761 36.2187 23.875 37.0087Z" fill="black"/>
<path d="M7.99707 21.4765C7.99813 22.2671 7.80333 23.0456 7.43005 23.7427C7.05676 24.4397 6.51662 25.0335 5.85785 25.471C5.19914 25.0337 4.65886 24.4404 4.28513 23.7438C3.9114 23.0472 3.71582 22.2691 3.71582 21.4787C3.71582 20.6882 3.9114 19.9101 4.28513 19.2135C4.65886 18.517 5.19914 17.9236 5.85785 17.4863C6.51656 17.9229 7.05673 18.5158 7.43005 19.2122C7.80337 19.9085 7.99819 20.6864 7.99707 21.4765Z" fill="black"/>
<path d="M38.8726 21.4765C38.8728 22.2669 38.6777 23.0452 38.3045 23.7421C37.9313 24.439 37.3916 25.0329 36.7333 25.471C36.0746 25.0337 35.5343 24.4404 35.1606 23.7438C34.7869 23.0472 34.5913 22.2691 34.5913 21.4787C34.5913 20.6882 34.7869 19.9101 35.1606 19.2135C35.5343 18.517 36.0746 17.9236 36.7333 17.4863C37.3915 17.9234 37.9312 18.5165 38.3045 19.2127C38.6777 19.9089 38.8729 20.6866 38.8726 21.4765Z" fill="black"/>
<path d="M65.0942 32.4015H65.9279C66.1124 32.4196 66.2986 32.4 66.4753 32.344C66.6519 32.2879 66.8154 32.1965 66.9556 32.0753C67.189 31.7779 67.2995 31.4023 67.2643 31.0259V15.5548C67.2809 15.3766 67.2621 15.1969 67.2091 15.0259C67.1562 14.8549 67.07 14.6961 66.9556 14.5584C66.6663 14.3256 66.2976 14.2148 65.9279 14.2498H65.0942V11.6044H75.5125C78.8647 11.6044 81.3538 12.6331 82.9799 14.6907C84.606 16.7482 85.4205 19.6522 85.4235 23.4028C85.4235 26.93 84.5854 29.7444 82.9093 31.846C81.2332 33.9476 78.7676 34.9999 75.5125 35.0028H65.0942V32.4015ZM75.0052 32.4015C77.3576 32.4015 79.0573 31.655 80.1041 30.1618C81.1509 28.6686 81.6699 26.4141 81.6611 23.3984C81.6611 20.3121 81.1421 18.0106 80.1041 16.4939C79.0661 14.9772 77.3665 14.2174 75.0052 14.2145H71.0973V32.4015H75.0052Z" fill="black"/>
<path d="M90.284 33.2527C88.6344 31.7242 87.8096 29.4889 87.8096 26.5466C87.8096 23.4133 88.5756 21.0619 90.1076 19.4923C91.6396 17.9227 93.8156 17.1335 96.6355 17.1246C99.3555 17.1246 101.414 17.8962 102.811 19.4393C104.207 20.9825 104.907 23.0679 104.91 25.6957V27.3358H91.6337C91.6337 29.2905 92.1101 30.7308 93.0628 31.6566C93.5795 32.1371 94.1871 32.5095 94.8499 32.7518C95.5127 32.9941 96.2173 33.1014 96.9222 33.0675C97.6988 33.0802 98.4747 33.0137 99.2379 32.8691C99.8409 32.7421 100.417 32.5108 100.94 32.1857V30.863H104.301V33.3938C103.307 34.107 102.201 34.6508 101.029 35.0031C99.6802 35.3741 98.2853 35.5493 96.8869 35.5233C94.1405 35.538 91.9395 34.7811 90.284 33.2527ZM101.192 24.9903C101.192 21.4631 99.6598 19.6995 96.5958 19.6995C94.9815 19.6995 93.7509 20.1668 92.9084 21.1104C92.066 22.0539 91.6425 23.3369 91.6425 24.977L101.192 24.9903Z" fill="black"/>
<path d="M106.4 33.4509V30.6291H109.929V32.0753C111.034 32.6875 112.283 32.992 113.546 32.9571C114.397 33.0104 115.246 32.8305 116.003 32.4368C116.275 32.2588 116.495 32.0103 116.638 31.7177C116.781 31.425 116.842 31.0991 116.814 30.7746C116.83 30.3265 116.683 29.8879 116.4 29.5401C116.082 29.1866 115.695 28.9028 115.262 28.7068C114.776 28.482 113.824 28.0763 112.403 27.4988C111.284 27.0619 110.191 26.5599 109.131 25.9953C108.403 25.6041 107.773 25.0541 107.287 24.386C106.794 23.6644 106.547 22.8033 106.581 21.9302C106.543 21.2212 106.694 20.5149 107.018 19.8829C107.342 19.251 107.827 18.7161 108.425 18.3325C109.657 17.5271 111.333 17.123 113.453 17.12C114.737 17.1088 116.016 17.2825 117.251 17.6359C118.362 17.9486 119.407 18.4579 120.338 19.1393V21.8509H116.867V20.5282C115.923 19.979 114.845 19.7042 113.753 19.7345C112.909 19.6795 112.066 19.8547 111.314 20.2416C111.038 20.425 110.816 20.6795 110.673 20.9783C110.529 21.277 110.469 21.6089 110.498 21.939C110.487 22.2714 110.563 22.6009 110.717 22.8953C110.872 23.1897 111.1 23.439 111.38 23.6189C112.219 24.141 113.118 24.5599 114.057 24.8666C114.438 24.9792 114.812 25.1116 115.178 25.2634C116.206 25.6409 117.209 26.0827 118.182 26.5861C118.902 26.9871 119.523 27.5446 119.999 28.2174C120.505 28.975 120.758 29.8732 120.722 30.7835C120.752 31.4727 120.605 32.1582 120.297 32.7752C119.988 33.3923 119.527 33.9207 118.958 34.3106C117.782 35.1248 116.017 35.5334 113.665 35.5363C110.748 35.5422 108.326 34.8471 106.4 33.4509Z" fill="black"/>
<path d="M126.778 34.5009C125.383 33.8132 124.22 32.7308 123.435 31.3882C122.579 29.8877 122.154 28.1808 122.204 26.4545C122.204 23.4182 123.019 21.0991 124.648 19.4971C126.277 17.8952 128.525 17.0928 131.392 17.0898C132.726 17.0727 134.056 17.257 135.335 17.6365C136.449 18.0005 137.493 18.5506 138.423 19.2635V22.7333H135.057V20.7228C134.56 20.4322 134.024 20.214 133.465 20.0747C132.787 19.9362 132.096 19.8755 131.405 19.8939C130.674 19.8656 129.945 19.9946 129.267 20.2723C128.59 20.5499 127.98 20.9697 127.48 21.5032C126.48 22.5761 125.98 24.2324 125.98 26.4721C125.98 28.5914 126.553 30.1639 127.7 31.1898C128.92 32.2473 130.498 32.7979 132.111 32.7285C133.066 32.7449 134.019 32.6472 134.951 32.4375C135.737 32.2406 136.482 31.9111 137.157 31.4631L138.48 33.6676C137.544 34.332 136.499 34.8274 135.392 35.1314C134.12 35.4335 132.814 35.5728 131.507 35.5458C129.871 35.5697 128.252 35.2119 126.778 34.5009Z" fill="black"/>
<path d="M141.648 34.2797C141.141 33.8378 140.742 33.2858 140.481 32.6661C140.22 32.0463 140.105 31.3752 140.144 30.704C140.144 28.9669 140.693 27.6942 141.793 26.8859C142.893 26.0775 144.478 25.6028 146.548 25.4617L151.612 25.1311V22.9266C151.612 21.7979 151.37 20.9793 150.888 20.4708C150.406 19.9623 149.585 19.7095 148.427 19.7124C147.764 19.6985 147.102 19.7651 146.455 19.9108C145.947 20.0403 145.464 20.2533 145.026 20.5413V21.864H141.665V18.9894C143.72 17.7274 146.091 17.0745 148.502 17.1067C153.13 17.1067 155.444 19.1554 155.444 23.2529V31.189C155.413 31.5598 155.509 31.9301 155.718 32.2384C155.831 32.3552 155.969 32.4451 156.122 32.5016C156.275 32.558 156.438 32.5796 156.6 32.5646H157.394V35.0204H153.235L152.763 32.7454C152.061 33.6791 151.134 34.4194 150.068 34.897C148.782 35.3875 147.411 35.614 146.036 35.5627C144.113 35.551 142.65 35.1233 141.648 34.2797ZM150.346 32.0047C151.187 31.3786 151.609 30.4263 151.612 29.1477V27.4105L146.839 27.7765C145.663 27.8499 144.842 28.0969 144.378 28.5172C144.129 28.7856 143.939 29.1032 143.821 29.4495C143.702 29.7958 143.658 30.1631 143.69 30.5277C143.668 30.8671 143.725 31.2068 143.857 31.5204C143.989 31.834 144.191 32.1129 144.448 32.3354C144.954 32.7469 145.775 32.9511 146.91 32.9482C148.127 33.013 149.332 32.682 150.346 32.0047Z" fill="black"/>
<path d="M159.423 32.3309H160.328C160.509 32.3649 160.695 32.3542 160.872 32.2998C161.048 32.2453 161.208 32.1488 161.338 32.0185C161.469 31.8882 161.565 31.7281 161.62 31.552C161.674 31.376 161.685 31.1893 161.651 31.0082V21.6656C161.681 21.3034 161.577 20.9427 161.36 20.6515C161.229 20.5318 161.075 20.4408 160.907 20.3846C160.739 20.3284 160.561 20.3082 160.385 20.3253H159.622V17.6358H164.615L165.122 19.6242C165.561 18.9158 166.221 18.3718 167.001 18.0767C167.865 17.7665 168.778 17.6171 169.696 17.6358H171.359V20.3253H169.334C167.963 20.3253 166.983 20.6339 166.406 21.2467C165.828 21.8596 165.523 22.8075 165.523 24.0861V30.9906C165.487 31.3588 165.591 31.7272 165.815 32.0223C165.948 32.1371 166.103 32.2236 166.27 32.2767C166.438 32.3297 166.614 32.3482 166.789 32.3309H167.694V35.0028H159.423V32.3309Z" fill="black"/>
<path d="M176.819 34.064C175.807 33.0764 175.301 31.6303 175.301 29.7256V20.2551H172.461V17.6362H175.284V13.7474L179.117 12.5173V17.6362H184.326V20.2419H179.134V29.9813C179.134 31.0395 179.333 31.7978 179.73 32.2564C179.966 32.4983 180.252 32.6853 180.568 32.8042C180.885 32.923 181.223 32.9708 181.56 32.9442C182.423 33.0033 183.279 32.7601 183.982 32.2564V30.7044H187.272V33.4512C186.499 34.1122 185.619 34.637 184.67 35.0031C183.603 35.3883 182.474 35.5722 181.34 35.5455C179.343 35.5455 177.836 35.0516 176.819 34.064Z" fill="black"/>
<path d="M191.051 33.2527C189.401 31.7242 188.575 29.4889 188.572 26.5466C188.572 23.4133 189.338 21.0619 190.87 19.4923C192.402 17.9227 194.578 17.1335 197.398 17.1246C200.124 17.1246 202.182 17.8962 203.573 19.4393C204.964 20.9825 205.664 23.0679 205.673 25.6957V27.3358H192.41C192.41 29.2905 192.885 30.7308 193.834 31.6566C194.35 32.1366 194.957 32.5086 195.619 32.7509C196.281 32.9932 196.985 33.1008 197.689 33.0675C198.466 33.0799 199.242 33.0135 200.005 32.8691C200.606 32.7416 201.181 32.5104 201.703 32.1857V30.863H205.069V33.3938C204.073 34.1062 202.968 34.6499 201.796 35.0031C200.447 35.3738 199.052 35.549 197.654 35.5233C194.902 35.538 192.701 34.7811 191.051 33.2527ZM201.955 24.9903C201.955 21.4631 200.424 19.6995 197.363 19.6995C195.749 19.6995 194.518 20.1668 193.676 21.1104C192.833 22.0539 192.41 23.3369 192.41 24.977L201.955 24.9903Z" fill="black"/>
<path d="M207.166 33.4504V30.6286H210.695V32.0748C211.8 32.687 213.049 32.9915 214.311 32.9566C215.157 33.0116 216.001 32.8363 216.755 32.4495C217.028 32.2716 217.247 32.023 217.39 31.7304C217.533 31.4377 217.594 31.1119 217.567 30.7874C217.586 30.3348 217.438 29.8908 217.152 29.5396C216.834 29.1851 216.444 28.9012 216.01 28.7063C215.529 28.4815 214.576 28.0758 213.156 27.4983C212.036 27.0614 210.944 26.5594 209.883 25.9948C209.154 25.6036 208.522 25.0537 208.035 24.3855C207.544 23.6631 207.296 22.8026 207.329 21.9297C207.292 21.2204 207.444 20.5139 207.768 19.882C208.093 19.2501 208.579 18.7154 209.177 18.332C210.404 17.5266 212.078 17.1225 214.201 17.1195C215.491 17.1059 216.776 17.2797 218.017 17.6354C219.127 17.949 220.172 18.4582 221.104 19.1388V21.8504H217.628V20.5277C216.686 19.9791 215.609 19.7043 214.519 19.734C213.675 19.679 212.832 19.8542 212.08 20.2411C211.809 20.4243 211.593 20.6759 211.452 20.9703C211.311 21.2646 211.25 21.5912 211.277 21.9165C211.266 22.2488 211.342 22.5783 211.496 22.8728C211.651 23.1672 211.879 23.4165 212.159 23.5963C212.988 24.1171 213.876 24.536 214.805 24.844C215.186 24.9566 215.56 25.0891 215.926 25.2409C216.953 25.6174 217.955 26.0592 218.925 26.5636C219.658 26.9669 220.288 27.5324 220.769 28.2169C221.275 28.9745 221.528 29.8727 221.492 30.7829C221.522 31.4722 221.375 32.1577 221.067 32.7747C220.758 33.3918 220.297 33.9202 219.728 34.3101C218.552 35.1243 216.787 35.5329 214.435 35.5358C211.518 35.5417 209.095 34.8466 207.166 33.4504Z" fill="black"/>
<path d="M236.537 32.331H237.586C237.956 32.3659 238.325 32.2552 238.614 32.0223C238.729 31.8848 238.815 31.7259 238.868 31.5549C238.921 31.3839 238.94 31.2041 238.923 31.0259V15.5945C238.939 15.4163 238.921 15.2365 238.868 15.0655C238.815 14.8946 238.728 14.7357 238.614 14.598C238.324 14.3668 237.956 14.2576 237.586 14.2938H236.537V11.6132H241.927L252.953 28.7156V15.5901C252.97 15.4105 252.949 15.2295 252.893 15.0581C252.837 14.8868 252.747 14.7287 252.627 14.5936C252.34 14.3677 251.977 14.259 251.613 14.2894H250.532V11.6132H259.142V14.2894H258.057C257.697 14.2567 257.34 14.3659 257.06 14.5936C256.832 14.8733 256.723 15.2309 256.756 15.5901V34.9896H253.752L242.725 17.9268V31.0259C242.709 31.2055 242.729 31.3865 242.785 31.5578C242.841 31.7292 242.932 31.8873 243.051 32.0223C243.337 32.2492 243.698 32.3595 244.061 32.331H245.111V35.0028H236.537V32.331Z" fill="black"/>
<path d="M262.379 33.2527C260.727 31.7242 259.9 29.4889 259.9 26.5466C259.9 23.4133 260.666 21.0619 262.198 19.4923C263.73 17.9227 265.906 17.1335 268.726 17.1246C271.452 17.1246 273.511 17.8962 274.901 19.4393C276.292 20.9825 276.991 23.0621 276.997 25.6781V27.3358H263.72C263.72 29.2905 264.196 30.7308 265.149 31.6566C265.667 32.1382 266.276 32.5112 266.94 32.7535C267.605 32.9958 268.311 33.1026 269.017 33.0675C269.793 33.08 270.567 33.0136 271.329 32.8691C271.93 32.7422 272.505 32.5109 273.027 32.1857V30.863H276.392V33.3938C275.396 34.1071 274.289 34.6509 273.115 35.0031C271.767 35.3741 270.372 35.5493 268.973 35.5233C266.23 35.538 264.032 34.7811 262.379 33.2527ZM273.283 24.9903C273.283 21.4631 271.752 19.6995 268.691 19.6995C267.077 19.6995 265.846 20.1668 264.999 21.1104C264.152 22.0539 263.733 23.3369 263.733 24.977L273.283 24.9903Z" fill="black"/>
<path d="M282.47 34.064C281.467 33.0764 280.966 31.6303 280.966 29.7256V20.2551H278.143V17.6362H280.966V13.7474L284.799 12.5173V17.6362H290.008V20.2419H284.786V29.9813C284.786 31.0395 284.984 31.7978 285.381 32.2564C285.616 32.4987 285.901 32.686 286.217 32.8049C286.533 32.9238 286.871 32.9714 287.207 32.9442C288.071 33.004 288.929 32.7607 289.633 32.2564V30.7044H292.924V33.4512C292.15 34.1122 291.27 34.637 290.321 35.0031C289.254 35.388 288.125 35.5718 286.991 35.5455C284.989 35.5455 283.482 35.0516 282.47 34.064Z" fill="black"/>
<path d="M294.371 21.1636C294.317 20.8443 294.142 20.5583 293.881 20.3656C293.539 20.198 293.159 20.1235 292.779 20.1495H291.896V17.6364H296.925L299.933 30.665L303.462 19.2016H306.28L309.809 30.665L312.896 17.6496H317.889V20.1451H316.985C316.605 20.1191 316.224 20.1936 315.882 20.3612C315.646 20.5663 315.495 20.8526 315.459 21.1636L312.129 35.0078H308.371L304.935 23.9853L301.459 35.0078H297.697L294.371 21.1636Z" fill="black"/>
<path d="M320.592 33.1249C319.098 31.5112 318.351 29.2582 318.351 26.3659C318.351 23.4736 319.086 21.2015 320.556 19.5496C322.027 17.9212 324.251 17.1071 327.23 17.1071C330.209 17.1071 332.433 17.9212 333.903 19.5496C335.374 21.1751 336.109 23.4472 336.109 26.3659C336.109 29.2847 335.371 31.5377 333.895 33.1249C332.398 34.7386 330.179 35.5454 327.239 35.5454C324.298 35.5454 322.083 34.7386 320.592 33.1249ZM331.116 31.2467C331.963 30.1826 332.386 28.5557 332.386 26.3659C332.386 24.1761 331.963 22.5301 331.116 21.4279C330.272 20.3697 328.982 19.8406 327.248 19.8406C325.513 19.8406 324.229 20.3697 323.397 21.4279C322.562 22.5007 322.146 24.1467 322.149 26.3659C322.152 28.5851 322.568 30.212 323.397 31.2467C324.226 32.3048 325.51 32.8339 327.248 32.8339C328.985 32.8339 330.275 32.3048 331.116 31.2467Z" fill="black"/>
<path d="M338.536 32.331H339.44C339.81 32.3659 340.178 32.2552 340.468 32.0224C340.584 31.8791 340.672 31.7142 340.725 31.5372C340.778 31.3602 340.795 31.1745 340.776 30.9907V21.6657C340.806 21.3035 340.703 20.9428 340.485 20.6516C340.355 20.5312 340.201 20.4398 340.033 20.3835C339.865 20.3272 339.687 20.3074 339.51 20.3253H338.747V17.6359H343.74L344.243 19.6243C344.681 18.918 345.338 18.3744 346.113 18.0768C346.977 17.7661 347.891 17.6167 348.808 17.6359H350.471V20.3253H348.451C347.075 20.3253 346.1 20.634 345.518 21.2468C344.936 21.8597 344.636 22.8076 344.636 24.0862V30.9907C344.598 31.3583 344.701 31.7266 344.922 32.0224C345.056 32.1359 345.211 32.2216 345.379 32.2746C345.546 32.3276 345.722 32.3468 345.897 32.331H346.806V35.0028H338.536V32.331Z" fill="black"/>
<path d="M351.591 32.4373H352.566C352.92 32.4767 353.276 32.3806 353.562 32.1683C353.772 31.8941 353.868 31.5502 353.831 31.2072V14.7925C353.866 14.4538 353.776 14.1141 353.58 13.8358C353.315 13.6254 352.977 13.5287 352.641 13.5668H351.807V11.0714H359.583V13.5668H358.569C358.408 13.5493 358.245 13.564 358.089 13.6102C357.934 13.6564 357.79 13.7331 357.664 13.8358C357.468 14.1141 357.379 14.4538 357.413 14.7925V25.4226L363.275 20.1803H361.511V17.6363H369.754V20.1671H368.092C367.79 20.1491 367.489 20.1988 367.209 20.3126C366.924 20.4752 366.658 20.6689 366.415 20.8902L362.834 24.0382L367.209 31.4497C367.381 31.7595 367.623 32.0251 367.915 32.2256C368.249 32.3797 368.616 32.4479 368.982 32.4241H370.504V34.9901H365.652L360.307 26.1457L357.413 28.7161V31.2072C357.377 31.5508 357.475 31.895 357.687 32.1683C357.971 32.3811 358.326 32.4773 358.679 32.4373H359.799V35.0033H351.591V32.4373Z" fill="black"/>
</svg>
