<svg width="137" height="32" viewBox="0 0 137 32" fill="none" xmlns="http://www.w3.org/2000/svg">
<path d="M46.188 7.98384V8.43717C45.6893 8.45228 45.3116 8.51273 45.0547 8.61851C44.7978 8.70917 44.624 8.8905 44.5333 9.16251C44.4427 9.41939 44.3973 9.82739 44.3973 10.3865V21.6292C44.3973 22.1732 44.4427 22.5812 44.5333 22.8532C44.624 23.1252 44.7978 23.3065 45.0547 23.3972C45.3116 23.4878 45.6893 23.5483 46.188 23.5785V24.0318C45.8253 24.0016 45.3644 23.9865 44.8053 23.9865C44.2613 23.9714 43.7022 23.9638 43.128 23.9638C42.4933 23.9638 41.8964 23.9714 41.3373 23.9865C40.7933 23.9865 40.3476 24.0016 40 24.0318V23.5785C40.5138 23.5483 40.8991 23.4878 41.156 23.3972C41.4129 23.3065 41.5791 23.1252 41.6547 22.8532C41.7453 22.5812 41.7907 22.1732 41.7907 21.6292V10.3865C41.7907 9.82739 41.7453 9.41939 41.6547 9.16251C41.5791 8.8905 41.4053 8.70917 41.1333 8.61851C40.8764 8.51273 40.4987 8.45228 40 8.43717V7.98384C40.3476 7.99895 40.7933 8.01406 41.3373 8.02917C41.8964 8.04428 42.4933 8.05184 43.128 8.05184C43.7022 8.05184 44.2613 8.04428 44.8053 8.02917C45.3644 8.01406 45.8253 7.99895 46.188 7.98384Z" fill="#F4F3F3"/>
<path d="M55.5626 12.0185C56.1671 12.0185 56.6582 12.1016 57.0359 12.2678C57.4288 12.4189 57.7537 12.6305 58.0106 12.9025C58.2826 13.1896 58.4715 13.5598 58.5773 14.0132C58.6982 14.4665 58.7586 15.0785 58.7586 15.8492V21.9238C58.7586 22.5585 58.8795 22.9892 59.1213 23.2158C59.3782 23.4425 59.8013 23.5558 60.3906 23.5558V24.0318C60.1337 24.0167 59.7333 24.0016 59.1893 23.9865C58.6453 23.9563 58.1088 23.9412 57.5799 23.9412C57.0662 23.9412 56.5524 23.9563 56.0386 23.9865C55.5399 24.0016 55.1622 24.0167 54.9053 24.0318V23.5558C55.4191 23.5558 55.7817 23.4425 55.9933 23.2158C56.2048 22.9892 56.3106 22.5585 56.3106 21.9238V15.2145C56.3106 14.7763 56.2728 14.3834 56.1973 14.0358C56.1217 13.6732 55.9631 13.3861 55.7213 13.1745C55.4795 12.9478 55.1168 12.8345 54.6333 12.8345C54.0742 12.8345 53.5755 12.9932 53.1373 13.3105C52.7142 13.6278 52.3742 14.0661 52.1173 14.6252C51.8755 15.1692 51.7546 15.7812 51.7546 16.4612V21.9238C51.7546 22.5585 51.8604 22.9892 52.0719 23.2158C52.2986 23.4425 52.6613 23.5558 53.1599 23.5558V24.0318C52.9182 24.0167 52.5479 24.0016 52.0493 23.9865C51.5657 23.9563 51.0595 23.9412 50.5306 23.9412C50.0168 23.9412 49.4804 23.9563 48.9213 23.9865C48.3622 24.0016 47.9466 24.0167 47.6746 24.0318V23.5558C48.2639 23.5558 48.6795 23.4425 48.9213 23.2158C49.1782 22.9892 49.3066 22.5585 49.3066 21.9238V14.8065C49.3066 14.1265 49.1933 13.6278 48.9666 13.3105C48.7399 12.9781 48.3093 12.8118 47.6746 12.8118V12.3358C48.1582 12.3812 48.6266 12.4038 49.0799 12.4038C49.5937 12.4038 50.0697 12.3812 50.5079 12.3358C50.9613 12.2754 51.3768 12.1923 51.7546 12.0865V14.5572C52.1475 13.6203 52.6839 12.963 53.3639 12.5852C54.0591 12.2074 54.7919 12.0185 55.5626 12.0185Z" fill="#F4F3F3"/>
<path d="M65.2988 8.59584V12.3585H68.4268V12.8118H65.2988V21.7198C65.2988 22.3394 65.4122 22.7776 65.6388 23.0345C65.8655 23.2914 66.1904 23.4198 66.6135 23.4198C67.0064 23.4198 67.3539 23.2612 67.6562 22.9438C67.9735 22.6265 68.2455 22.0901 68.4722 21.3345L68.9028 21.4932C68.7215 22.2941 68.3966 22.9741 67.9282 23.5332C67.4748 24.0772 66.8024 24.3492 65.9108 24.3492C65.3971 24.3492 64.9664 24.2812 64.6188 24.1452C64.2713 24.0243 63.9691 23.843 63.7122 23.6012C63.3797 23.2536 63.1531 22.8381 63.0322 22.3545C62.9113 21.871 62.8508 21.2287 62.8508 20.4278V12.8118H60.7655V12.3585H62.8508V9.04917C63.3193 9.03406 63.7575 8.99628 64.1655 8.93584C64.5735 8.86028 64.9513 8.74695 65.2988 8.59584Z" fill="#F4F3F3"/>
<path d="M74.9222 12.0185C76.252 12.0185 77.2947 12.4189 78.0502 13.2198C78.8058 14.0207 79.1836 15.2901 79.1836 17.0278H71.3636L71.3182 16.5972H76.7809C76.796 15.8567 76.7356 15.1767 76.5996 14.5572C76.4636 13.9225 76.252 13.4163 75.9649 13.0385C75.6778 12.6607 75.3 12.4718 74.8316 12.4718C74.1818 12.4718 73.6151 12.8194 73.1316 13.5145C72.6631 14.1945 72.376 15.2901 72.2702 16.8012L72.3382 16.9145C72.3231 17.1261 72.308 17.3603 72.2929 17.6172C72.2778 17.859 72.2702 18.1007 72.2702 18.3425C72.2702 19.3852 72.4289 20.2616 72.7462 20.9718C73.0636 21.6821 73.4791 22.2185 73.9929 22.5812C74.5067 22.9287 75.028 23.1025 75.5569 23.1025C75.9649 23.1025 76.3578 23.0421 76.7356 22.9212C77.1285 22.7852 77.4987 22.5661 77.8462 22.2638C78.1938 21.9465 78.5036 21.5158 78.7756 20.9718L79.2289 21.1532C79.0476 21.667 78.768 22.1732 78.3902 22.6718C78.0125 23.1705 77.5289 23.5785 76.9396 23.8958C76.3502 24.1981 75.6627 24.3492 74.8769 24.3492C73.8191 24.3492 72.8974 24.115 72.1116 23.6465C71.3258 23.163 70.7214 22.4754 70.2982 21.5838C69.8751 20.6923 69.6636 19.6345 69.6636 18.4105C69.6636 17.0656 69.8827 15.9172 70.3209 14.9652C70.7591 14.0132 71.3711 13.2878 72.1569 12.7892C72.9578 12.2754 73.8796 12.0185 74.9222 12.0185Z" fill="#F4F3F3"/>
<path d="M87.9993 12.0185C88.4375 12.0185 88.8078 12.1092 89.11 12.2905C89.4273 12.4718 89.6615 12.7061 89.8127 12.9932C89.9789 13.2652 90.062 13.575 90.062 13.9225C90.062 14.3607 89.926 14.7385 89.654 15.0558C89.3971 15.3581 89.0495 15.5092 88.6113 15.5092C88.2335 15.5092 87.9087 15.3958 87.6367 15.1692C87.3798 14.9425 87.2513 14.6327 87.2513 14.2398C87.2513 13.9074 87.3344 13.6278 87.5007 13.4012C87.682 13.1594 87.886 12.9705 88.1127 12.8345C87.9615 12.7136 87.7802 12.6607 87.5687 12.6758C87.1607 12.691 86.7829 12.827 86.4353 13.0838C86.0878 13.3256 85.7931 13.6429 85.5513 14.0358C85.3095 14.4136 85.1207 14.8216 84.9847 15.2598C84.8487 15.6981 84.7807 16.1061 84.7807 16.4838V21.6972C84.7807 22.4376 84.9847 22.9363 85.3927 23.1932C85.8007 23.435 86.3673 23.5558 87.0927 23.5558V24.0318C86.7451 24.0167 86.2464 24.0016 85.5967 23.9865C84.962 23.9563 84.2895 23.9412 83.5793 23.9412C83.0353 23.9412 82.4913 23.9563 81.9473 23.9865C81.4033 24.0016 80.9878 24.0167 80.7007 24.0318V23.5558C81.29 23.5558 81.7055 23.4425 81.9473 23.2158C82.2042 22.9892 82.3327 22.5585 82.3327 21.9238V14.8065C82.3327 14.1265 82.2193 13.6278 81.9927 13.3105C81.766 12.9781 81.3353 12.8118 80.7007 12.8118V12.3358C81.1842 12.3812 81.6527 12.4038 82.106 12.4038C82.6198 12.4038 83.0958 12.3812 83.534 12.3358C83.9873 12.2754 84.4029 12.1923 84.7807 12.0865V14.6932C84.962 14.2549 85.2038 13.8318 85.506 13.4238C85.8082 13.0158 86.1709 12.6834 86.594 12.4265C87.0171 12.1545 87.4855 12.0185 87.9993 12.0185Z" fill="#F4F3F3"/>
<path d="M97.3051 7.98384C100.101 7.98384 102.178 8.66384 103.538 10.0238C104.898 11.3687 105.578 13.3029 105.578 15.8265C105.578 17.4736 105.246 18.9167 104.581 20.1558C103.916 21.3798 102.949 22.3318 101.68 23.0118C100.425 23.6918 98.8993 24.0318 97.1011 24.0318C96.8744 24.0318 96.5646 24.0243 96.1717 24.0092C95.7939 23.9941 95.4011 23.9865 94.9931 23.9865C94.5851 23.9714 94.2148 23.9638 93.8824 23.9638C93.3082 23.9638 92.7415 23.9714 92.1824 23.9865C91.6384 23.9865 91.1926 24.0016 90.845 24.0318V23.5785C91.3588 23.5483 91.7442 23.4878 92.001 23.3972C92.2579 23.3065 92.4242 23.1252 92.4997 22.8532C92.5904 22.5812 92.6357 22.1732 92.6357 21.6292V10.3865C92.6357 9.82739 92.5904 9.41939 92.4997 9.16251C92.4242 8.8905 92.2504 8.70917 91.9784 8.61851C91.7215 8.51273 91.3437 8.45228 90.845 8.43717V7.98384C91.1926 7.99895 91.6384 8.02162 92.1824 8.05184C92.7415 8.06695 93.2931 8.06695 93.8371 8.05184C94.3811 8.03673 94.9855 8.02162 95.6504 8.00651C96.3304 7.99139 96.8819 7.98384 97.3051 7.98384ZM96.9197 8.39184C96.2246 8.39184 95.7713 8.52028 95.5597 8.77717C95.3482 9.03406 95.2424 9.55539 95.2424 10.3412V21.6745C95.2424 22.4603 95.3482 22.9816 95.5597 23.2385C95.7864 23.4954 96.2473 23.6238 96.9424 23.6238C98.4686 23.6238 99.6548 23.3292 100.501 22.7398C101.347 22.1354 101.944 21.259 102.292 20.1105C102.639 18.9621 102.813 17.5643 102.813 15.9172C102.813 14.2247 102.624 12.8269 102.246 11.7238C101.869 10.6056 101.249 9.7745 100.388 9.2305C99.5415 8.67139 98.3855 8.39184 96.9197 8.39184Z" fill="#F4F3F3"/>
<path d="M113.87 7.89317L119.4 22.1278C119.612 22.687 119.854 23.0647 120.126 23.2612C120.413 23.4576 120.677 23.5634 120.919 23.5785V24.0318C120.556 24.0016 120.126 23.9865 119.627 23.9865C119.144 23.9714 118.652 23.9638 118.154 23.9638C117.519 23.9638 116.93 23.9714 116.386 23.9865C115.842 23.9865 115.404 24.0016 115.071 24.0318V23.5785C115.842 23.5483 116.325 23.4198 116.522 23.1932C116.733 22.9514 116.688 22.4452 116.386 21.6745L112.306 10.6585L112.668 10.2505L108.906 20.0878C108.634 20.7678 108.468 21.3345 108.407 21.7878C108.362 22.2412 108.4 22.5963 108.52 22.8532C108.656 23.1101 108.883 23.2914 109.2 23.3972C109.518 23.503 109.911 23.5634 110.379 23.5785V24.0318C109.926 24.0016 109.465 23.9865 108.996 23.9865C108.543 23.9714 108.112 23.9638 107.704 23.9638C107.342 23.9638 107.017 23.9714 106.73 23.9865C106.458 23.9865 106.208 24.0016 105.982 24.0318V23.5785C106.299 23.503 106.616 23.3141 106.934 23.0118C107.251 22.7096 107.553 22.1958 107.84 21.4705L113.099 7.89317C113.22 7.89317 113.348 7.89317 113.484 7.89317C113.62 7.89317 113.749 7.89317 113.87 7.89317ZM116.25 17.5038V17.9572H109.495L109.722 17.5038H116.25Z" fill="#F4F3F3"/>
<path d="M129.143 7.6665C130.624 7.6665 131.924 7.99139 133.042 8.64117C134.175 9.29095 135.052 10.2278 135.671 11.4518C136.291 12.6607 136.601 14.1341 136.601 15.8718C136.601 17.5643 136.283 19.0452 135.649 20.3145C135.014 21.5838 134.13 22.5736 132.997 23.2838C131.863 23.9941 130.571 24.3492 129.121 24.3492C127.625 24.3492 126.318 24.0243 125.199 23.3745C124.081 22.7247 123.212 21.7878 122.593 20.5638C121.973 19.3398 121.663 17.8665 121.663 16.1438C121.663 14.4514 121.981 12.9705 122.615 11.7012C123.265 10.4318 124.149 9.44206 125.267 8.73184C126.386 8.02162 127.678 7.6665 129.143 7.6665ZM129.053 8.0745C128.116 8.0745 127.3 8.4145 126.605 9.0945C125.91 9.77451 125.373 10.7114 124.995 11.9052C124.618 13.099 124.429 14.4816 124.429 16.0532C124.429 17.655 124.64 19.0527 125.063 20.2465C125.487 21.4252 126.061 22.3394 126.786 22.9892C127.511 23.6238 128.32 23.9412 129.211 23.9412C130.148 23.9412 130.957 23.6012 131.637 22.9212C132.332 22.2412 132.868 21.3043 133.246 20.1105C133.639 18.9016 133.835 17.519 133.835 15.9625C133.835 14.3456 133.616 12.9478 133.178 11.7692C132.755 10.5905 132.181 9.68384 131.455 9.04917C130.745 8.39939 129.944 8.0745 129.053 8.0745Z" fill="#F4F3F3"/>
<path d="M31.891 6.47341L31.1572 6.74035L27.0207 8.27529L22.4839 9.97706C22.217 10.0772 21.9501 9.81022 22.0502 9.54327L23.7515 5.00521L25.286 0.900938L25.5529 0.16684C25.0525 0.0667362 24.5521 0 24.0184 0H8.00612C7.47238 0 6.972 0.0667362 6.47161 0.133472L6.73849 0.86757L8.27299 5.00521L9.97429 9.57664C10.0744 9.84359 9.8075 10.1105 9.54063 10.0104L5.00383 8.27529L0.900689 6.74035L0.166794 6.47341C0.0333588 6.97393 0 7.47445 0 8.00834V24.025C0 24.5589 0.0333588 25.0594 0.133435 25.56L0.86733 25.293L5.00383 23.7581L9.54063 22.0563C9.8075 21.9562 10.0744 22.2231 9.97429 22.4901L8.27299 27.0282L6.73849 31.1324L6.47161 31.8665C6.972 31.9666 7.47238 32 8.00612 32H24.0184C24.5521 32 25.0525 31.9333 25.5529 31.8665L25.286 31.1324L23.7515 27.0282L22.0502 22.4901C21.9501 22.2231 22.217 21.9562 22.4839 22.0563L27.0207 23.7581L31.1238 25.293L31.8577 25.56C31.9578 25.0594 31.9911 24.5589 31.9911 24.025V8.00834C32.0245 7.47445 31.9578 6.97393 31.891 6.47341ZM19.1146 18.7195C18.8477 18.6194 18.5809 18.8863 18.6809 19.1533L21.2162 25.9937C19.8485 24.7591 18.0138 24.025 16.0122 24.025C14.0107 24.025 12.176 24.7591 10.7749 25.9604L13.3102 19.1199C13.4103 18.853 13.1434 18.586 12.8765 18.6861L6.03795 21.2221C7.27223 19.854 8.00612 18.0188 8.00612 16.0167C8.00612 14.0146 7.27223 12.1794 6.03795 10.7779L12.8765 13.3472C13.1434 13.4473 13.4103 13.1804 13.3102 12.9135L10.7749 6.07299C12.176 7.27424 14.0107 8.00834 16.0122 8.00834C18.0138 8.00834 19.8485 7.27424 21.2496 6.03962L18.7143 12.8801C18.6142 13.147 18.8811 13.414 19.148 13.3139L25.9865 10.7445C24.7523 12.1794 24.0184 14.0146 24.0184 16.0167C24.0184 18.0188 24.7523 19.854 25.9865 21.2555L19.1146 18.7195Z" fill="#F9DEB0"/>
<path d="M31.2579 4.60442L27.0213 6.20609L25.8204 6.67324C25.5535 6.77335 25.2867 6.5064 25.3867 6.23946L25.8538 5.00484L27.455 0.76709C29.1229 1.53456 30.4906 2.93602 31.2579 4.60442Z" fill="#F9DEB0"/>
<path d="M6.20507 6.63987L5.00415 6.20609L0.767578 4.60442C1.53483 2.93602 2.9359 1.53456 4.60384 0.76709L6.20507 5.00484L6.67209 6.23946C6.73881 6.5064 6.5053 6.73998 6.20507 6.63987Z" fill="#F9DEB0"/>
<path d="M6.63889 25.8265L6.20522 27.0278L4.604 31.2989C2.9027 30.4981 1.53499 29.13 0.734375 27.4282L5.00431 25.8265L6.20522 25.3594C6.50545 25.2926 6.73897 25.5262 6.63889 25.8265Z" fill="#F9DEB0"/>
<path d="M31.2581 27.4283C30.4574 29.1301 29.0897 30.4982 27.3884 31.299L25.8206 27.0279L25.3535 25.8266C25.2535 25.5597 25.5203 25.2928 25.7872 25.3929L26.9881 25.86L31.2581 27.4283Z" fill="#F9DEB0"/>
<path d="M18.7135 19.1527L21.2487 25.9932C19.8477 24.7586 18.0129 24.0245 16.0114 24.0245C14.0099 24.0245 12.1751 24.7586 10.7741 25.9598L13.3093 19.1194C13.4094 18.8524 13.1425 18.5855 12.8757 18.6856L6.03711 21.2215C7.27139 19.8535 8.00528 18.0182 8.00528 16.0161C8.00528 14.014 7.27139 12.1788 6.03711 10.7773L12.8757 13.3467C13.1425 13.4468 13.4094 13.1798 13.3093 12.9129L10.7741 6.07243C12.1751 7.27368 14.0099 8.00778 16.0114 8.00778C18.0129 8.00778 19.8477 7.27368 21.2487 6.03906L18.7135 12.8795C18.6134 13.1465 18.8803 13.4134 19.1471 13.3133L25.9857 10.744C24.7514 12.1788 24.0175 14.014 24.0175 16.0161C24.0175 18.0182 24.7514 19.8535 25.9857 21.2549L19.1471 18.7189C18.8469 18.6188 18.6134 18.8524 18.7135 19.1527Z" fill="#1A1311"/>
<path d="M31.8897 6.4721L31.1558 6.73904L27.0193 8.27397L22.4825 9.97575C22.2157 10.0759 21.9488 9.80891 22.0489 9.54196L23.7502 5.0039L25.2847 0.899625L25.5515 0.165527C26.2187 0.299 26.8192 0.499208 27.4196 0.766153L25.8184 5.0039L25.3514 6.23852C25.2513 6.50547 25.5182 6.77241 25.785 6.67231L26.986 6.20515L31.2225 4.60348C31.5561 5.20411 31.7563 5.8381 31.8897 6.4721Z" fill="#1A1311"/>
<path d="M9.53985 9.97575L5.00305 8.27397L0.89991 6.73904L0.166016 6.4721C0.299451 5.80474 0.499604 5.20411 0.766475 4.60348L5.00305 6.20515L6.20397 6.67231C6.47084 6.77241 6.73771 6.50547 6.63763 6.23852L6.20397 5.0039L4.60274 0.766153C5.2032 0.499208 5.80366 0.299 6.47084 0.165527L6.73771 0.899625L8.27221 5.0039L9.97352 9.57533C10.0736 9.84228 9.84008 10.0759 9.53985 9.97575Z" fill="#1A1311"/>
<path d="M9.97352 22.4886L8.27221 27.0266L6.73771 31.1309L6.47084 31.865C5.80366 31.7315 5.2032 31.5313 4.60274 31.2644L6.20397 27.0266L6.67099 25.8254C6.77107 25.5584 6.5042 25.2915 6.23733 25.3916L5.00305 25.8254L0.766475 27.427C0.499604 26.8264 0.299451 26.2258 0.166016 25.5584L0.89991 25.2915L5.00305 23.7565L9.53985 22.0548C9.84008 21.9547 10.0736 22.1882 9.97352 22.4886Z" fill="#1A1311"/>
<path d="M25.3847 25.8253L25.8518 27.0266L27.453 31.2643C26.8525 31.5313 26.2521 31.7648 25.5849 31.8649L25.318 31.1308L23.7502 27.0266L22.0489 22.4885C21.9488 22.2216 22.2157 21.9546 22.4825 22.0547L27.0193 23.7565L31.1225 25.2914L31.8564 25.5584C31.7229 26.2257 31.5228 26.8264 31.2559 27.427L27.0193 25.8253L25.8184 25.3582C25.5182 25.2914 25.2847 25.525 25.3847 25.8253Z" fill="#1A1311"/>
</svg>
