<svg width="130" height="36" viewBox="0 0 130 36" fill="none" xmlns="http://www.w3.org/2000/svg">
<path d="M14.6161 35.9894L4.86779 26.2108C1.751 23.0844 0 18.844 0 14.4224C0 10.001 1.751 5.76055 4.86779 2.63408L7.4879 0.00585938L17.2418 9.78993C20.3561 12.9169 22.105 17.1565 22.104 21.5768C22.103 25.9968 20.3521 30.2356 17.2363 33.361L14.6161 35.9894Z" fill="url(#paint0_linear_199_1775)"/>
<path d="M11.9977 9.78958L21.7571 0L24.3772 2.62822C25.922 4.1765 27.1475 6.015 27.9837 8.03868C28.82 10.0624 29.2504 12.2315 29.2504 14.4221C29.2504 16.6128 28.82 18.7819 27.9837 20.8056C27.1475 22.8292 25.922 24.6676 24.3772 26.216L14.6232 36L11.9977 33.3664C8.88089 30.2398 7.12988 25.9994 7.12988 21.578C7.12988 17.1564 8.88089 12.916 11.9977 9.78958Z" fill="url(#paint1_linear_199_1775)"/>
<path d="M51.3923 28.818C49.8713 28.818 48.5452 28.5742 47.4142 28.0867C46.2832 27.5992 45.4057 26.9167 44.7817 26.0392C44.1772 25.1617 43.875 24.1282 43.875 22.9387V22.2075C43.875 22.11 43.9042 22.032 43.9627 21.9735C44.0407 21.8955 44.1285 21.8565 44.226 21.8565H46.8292C46.9267 21.8565 47.0047 21.8955 47.0632 21.9735C47.1412 22.032 47.1802 22.11 47.1802 22.2075V22.7632C47.1802 23.6602 47.58 24.411 48.3795 25.0155C49.179 25.6005 50.271 25.893 51.6555 25.893C52.845 25.893 53.742 25.6395 54.3465 25.1325C54.951 24.6255 55.2532 23.9722 55.2532 23.1727C55.2532 22.6267 55.0875 22.1685 54.756 21.798C54.4245 21.408 53.9467 21.057 53.3227 20.745C52.7182 20.433 51.8017 20.043 50.5732 19.575C49.1887 19.068 48.0675 18.5902 47.2095 18.1417C46.3515 17.6932 45.63 17.0887 45.045 16.3282C44.4795 15.5482 44.1967 14.583 44.1967 13.4325C44.1967 11.7165 44.8207 10.3612 46.0687 9.36675C47.3167 8.37225 48.984 7.875 51.0705 7.875C52.533 7.875 53.82 8.1285 54.9315 8.6355C56.0625 9.1425 56.94 9.85425 57.564 10.7707C58.188 11.6677 58.5 12.711 58.5 13.9005V14.3977C58.5 14.4952 58.461 14.583 58.383 14.661C58.3245 14.7195 58.2465 14.7487 58.149 14.7487H55.5165C55.419 14.7487 55.3312 14.7195 55.2532 14.661C55.1947 14.583 55.1655 14.4952 55.1655 14.3977V14.076C55.1655 13.1595 54.7852 12.3892 54.0247 11.7652C53.2837 11.1217 52.2502 10.8 50.9243 10.8C49.8517 10.8 49.0132 11.0242 48.4087 11.4727C47.8237 11.9212 47.5313 12.555 47.5313 13.374C47.5313 13.959 47.6872 14.4367 47.9992 14.8072C48.3113 15.1777 48.7792 15.519 49.4032 15.831C50.0272 16.1235 50.9925 16.5037 52.299 16.9717C53.6835 17.4982 54.7852 17.976 55.6042 18.405C56.4427 18.834 57.1545 19.4385 57.7395 20.2185C58.344 20.979 58.6462 21.9345 58.6462 23.085C58.6462 24.84 57.993 26.2342 56.6865 27.2677C55.3995 28.3012 53.6347 28.818 51.3923 28.818Z" fill="#484848"/>
<path d="M74.6407 19.4287C74.7187 19.9162 74.7577 20.4622 74.7577 21.0667L74.7285 21.9735C74.7285 22.2075 74.6115 22.3245 74.3775 22.3245H65.2222C65.1247 22.3245 65.076 22.3732 65.076 22.4707C65.1345 23.1142 65.2222 23.553 65.3392 23.787C65.8072 25.191 66.948 25.9027 68.7615 25.9222C70.0875 25.9222 71.1405 25.3762 71.9205 24.2842C71.9985 24.1672 72.096 24.1087 72.213 24.1087C72.291 24.1087 72.3592 24.138 72.4177 24.1965L74.2312 25.6882C74.4067 25.8247 74.436 25.9807 74.319 26.1562C73.7145 27.0142 72.9052 27.6772 71.8912 28.1453C70.8967 28.6132 69.7852 28.8472 68.5567 28.8472C67.0357 28.8472 65.739 28.506 64.6665 27.8235C63.6135 27.141 62.8432 26.1855 62.3557 24.957C61.9072 23.904 61.683 22.4415 61.683 20.5695C61.683 19.4385 61.8 18.522 62.034 17.82C62.424 16.455 63.1552 15.3825 64.2277 14.6025C65.3197 13.803 66.6262 13.4032 68.1472 13.4032C71.9887 13.4032 74.1532 15.4117 74.6407 19.4287ZM68.1472 16.3282C67.4257 16.3282 66.8212 16.5135 66.3337 16.884C65.8657 17.235 65.5342 17.7322 65.3392 18.3757C65.2222 18.7072 65.1442 19.1362 65.1052 19.6627C65.0662 19.7602 65.1052 19.809 65.2222 19.809H71.16C71.2575 19.809 71.3062 19.7602 71.3062 19.6627C71.2672 19.1752 71.2087 18.8047 71.1307 18.5512C70.9552 17.8492 70.6042 17.3032 70.0777 16.9132C69.5707 16.5232 68.9272 16.3282 68.1472 16.3282Z" fill="#484848"/>
<path d="M85.3174 13.4032C86.8969 13.4032 88.1547 13.8712 89.0907 14.8072C90.0462 15.7432 90.5239 17.0205 90.5239 18.639V28.233C90.5239 28.3305 90.4849 28.4182 90.4069 28.4963C90.3484 28.5548 90.2704 28.584 90.1729 28.584H87.4819C87.3844 28.584 87.2967 28.5548 87.2187 28.4963C87.1602 28.4182 87.131 28.3305 87.131 28.233V19.341C87.131 18.444 86.8774 17.7225 86.3704 17.1765C85.8634 16.611 85.1907 16.3282 84.3522 16.3282C83.5137 16.3282 82.8312 16.6012 82.3047 17.1472C81.7977 17.6932 81.5442 18.4147 81.5442 19.3117V28.233C81.5442 28.3305 81.5052 28.4182 81.4272 28.4963C81.3687 28.5548 81.2907 28.584 81.1932 28.584H78.5022C78.4047 28.584 78.3169 28.5548 78.2389 28.4963C78.1804 28.4182 78.1512 28.3305 78.1512 28.233V13.9882C78.1512 13.8907 78.1804 13.8127 78.2389 13.7542C78.3169 13.6762 78.4047 13.6372 78.5022 13.6372H81.1932C81.2907 13.6372 81.3687 13.6762 81.4272 13.7542C81.5052 13.8127 81.5442 13.8907 81.5442 13.9882V14.9242C81.5442 14.9827 81.5637 15.0217 81.6027 15.0412C81.6417 15.0607 81.6709 15.0412 81.6904 14.9827C82.4899 13.9297 83.6989 13.4032 85.3174 13.4032Z" fill="#484848"/>
<path d="M102.281 16.0357C102.281 16.1332 102.242 16.221 102.164 16.299C102.105 16.3575 102.027 16.3867 101.93 16.3867H98.9463C98.8488 16.3867 98.8001 16.4355 98.8001 16.533V23.5822C98.8001 24.3232 98.9561 24.8595 99.2681 25.191C99.5996 25.5225 100.116 25.6882 100.818 25.6882H101.696C101.793 25.6882 101.871 25.7272 101.93 25.8052C102.008 25.8637 102.047 25.9417 102.047 26.0392V28.233C102.047 28.4475 101.93 28.5742 101.696 28.6132L100.175 28.6425C98.6343 28.6425 97.4838 28.3792 96.7233 27.8527C95.9628 27.3262 95.5728 26.3317 95.5533 24.8692V16.533C95.5533 16.4355 95.5046 16.3867 95.4071 16.3867H93.7398C93.6423 16.3867 93.5546 16.3575 93.4766 16.299C93.4181 16.221 93.3888 16.1332 93.3888 16.0357V13.9882C93.3888 13.8907 93.4181 13.8127 93.4766 13.7542C93.5546 13.6762 93.6423 13.6372 93.7398 13.6372H95.4071C95.5046 13.6372 95.5533 13.5885 95.5533 13.491V10.0687C95.5533 9.97125 95.5826 9.89325 95.6411 9.83475C95.7191 9.75675 95.8068 9.71775 95.9043 9.71775H98.4491C98.5466 9.71775 98.6246 9.75675 98.6831 9.83475C98.7611 9.89325 98.8001 9.97125 98.8001 10.0687V13.491C98.8001 13.5885 98.8488 13.6372 98.9463 13.6372H101.93C102.027 13.6372 102.105 13.6762 102.164 13.7542C102.242 13.8127 102.281 13.8907 102.281 13.9882V16.0357Z" fill="#484848"/>
<path d="M112.548 13.4617C113.172 13.4617 113.718 13.5885 114.186 13.842C114.342 13.92 114.401 14.0662 114.362 14.2807L113.865 16.9132C113.845 17.1472 113.709 17.2155 113.455 17.118C113.163 17.0205 112.821 16.9717 112.431 16.9717C112.178 16.9717 111.983 16.9815 111.846 17.001C111.027 17.04 110.345 17.3325 109.799 17.8785C109.253 18.405 108.98 19.0972 108.98 19.9552V28.233C108.98 28.3305 108.941 28.4182 108.863 28.4963C108.804 28.5548 108.726 28.584 108.629 28.584H105.938C105.84 28.584 105.753 28.5548 105.675 28.4963C105.616 28.4182 105.587 28.3305 105.587 28.233V13.9882C105.587 13.8907 105.616 13.8127 105.675 13.7542C105.753 13.6762 105.84 13.6372 105.938 13.6372H108.629C108.726 13.6372 108.804 13.6762 108.863 13.7542C108.941 13.8127 108.98 13.8907 108.98 13.9882V15.3045C108.98 15.3825 108.99 15.4312 109.009 15.4507C109.048 15.4507 109.087 15.4215 109.126 15.363C109.945 14.0955 111.086 13.4617 112.548 13.4617Z" fill="#484848"/>
<path d="M129.198 19.4287C129.276 19.9162 129.315 20.4622 129.315 21.0667L129.285 21.9735C129.285 22.2075 129.168 22.3245 128.934 22.3245H119.779C119.682 22.3245 119.633 22.3732 119.633 22.4707C119.691 23.1142 119.779 23.553 119.896 23.787C120.364 25.191 121.505 25.9027 123.318 25.9222C124.644 25.9222 125.697 25.3762 126.477 24.2842C126.555 24.1672 126.653 24.1087 126.77 24.1087C126.848 24.1087 126.916 24.138 126.975 24.1965L128.788 25.6882C128.964 25.8247 128.993 25.9807 128.876 26.1562C128.271 27.0142 127.462 27.6772 126.448 28.1453C125.454 28.6132 124.342 28.8472 123.114 28.8472C121.593 28.8472 120.296 28.506 119.223 27.8235C118.17 27.141 117.4 26.1855 116.913 24.957C116.464 23.904 116.24 22.4415 116.24 20.5695C116.24 19.4385 116.357 18.522 116.591 17.82C116.981 16.455 117.712 15.3825 118.785 14.6025C119.877 13.803 121.183 13.4032 122.704 13.4032C126.546 13.4032 128.71 15.4117 129.198 19.4287ZM122.704 16.3282C121.983 16.3282 121.378 16.5135 120.891 16.884C120.423 17.235 120.091 17.7322 119.896 18.3757C119.779 18.7072 119.701 19.1362 119.662 19.6627C119.623 19.7602 119.662 19.809 119.779 19.809H125.717C125.814 19.809 125.863 19.7602 125.863 19.6627C125.824 19.1752 125.766 18.8047 125.688 18.5512C125.512 17.8492 125.161 17.3032 124.635 16.9132C124.128 16.5232 123.484 16.3282 122.704 16.3282Z" fill="#484848"/>
<defs>
<linearGradient id="paint0_linear_199_1775" x1="22.1132" y1="18.0003" x2="-0.00359886" y2="18.0003" gradientUnits="userSpaceOnUse">
<stop stop-color="#F9575E"/>
<stop offset="0.27" stop-color="#F8555B"/>
<stop offset="0.49" stop-color="#F44F51"/>
<stop offset="0.68" stop-color="#EE4540"/>
<stop offset="0.87" stop-color="#E63728"/>
<stop offset="1" stop-color="#DE2A13"/>
</linearGradient>
<linearGradient id="paint1_linear_199_1775" x1="-66331.4" y1="55689.6" x2="-66924.9" y2="55544.4" gradientUnits="userSpaceOnUse">
<stop stop-color="#F9575E"/>
<stop offset="0.27" stop-color="#F8555B"/>
<stop offset="0.49" stop-color="#F44F51"/>
<stop offset="0.68" stop-color="#EE4540"/>
<stop offset="0.87" stop-color="#E63728"/>
<stop offset="1" stop-color="#DE2A13"/>
</linearGradient>
</defs>
</svg>
