<svg width="24" height="20" viewBox="0 0 24 20" fill="none" xmlns="http://www.w3.org/2000/svg">
<path d="M3.89924 14.605C4.04406 14.4602 4.24318 14.3757 4.45437 14.3757H23.6066C23.9565 14.3757 24.1315 14.7981 23.8841 15.0455L20.1008 18.8289C19.9559 18.9737 19.7568 19.0582 19.5456 19.0582H0.393432C0.043455 19.0582 -0.131534 18.6358 0.115864 18.3884L3.89924 14.605Z" fill="url(#paint0_linear_471_8838)"/>
<path d="M3.89924 0.479295C4.05009 0.334477 4.24921 0.25 4.45437 0.25L23.6066 0.25C23.9565 0.25 24.1315 0.672386 23.8841 0.919784L20.1008 4.70316C19.9559 4.84798 19.7568 4.93245 19.5456 4.93245L0.393432 4.93245C0.043455 4.93245 -0.131534 4.51007 0.115864 4.26267L3.89924 0.479295Z" fill="url(#paint1_linear_471_8838)"/>
<path d="M20.1008 7.49687C19.9559 7.35206 19.7568 7.26758 19.5456 7.26758L0.393432 7.26758C0.043455 7.26758 -0.131534 7.68996 0.115864 7.93736L3.89924 11.7207C4.04406 11.8656 4.24318 11.95 4.45437 11.95H23.6066C23.9565 11.95 24.1315 11.5276 23.8841 11.2802L20.1008 7.49687Z" fill="url(#paint2_linear_471_8838)"/>
<defs>
<linearGradient id="paint0_linear_471_8838" x1="21.777" y1="-2.01016" x2="8.52213" y2="23.3782" gradientUnits="userSpaceOnUse">
<stop stop-color="#00FFA3"/>
<stop offset="1" stop-color="#DC1FFF"/>
</linearGradient>
<linearGradient id="paint1_linear_471_8838" x1="15.9812" y1="-5.03595" x2="2.72639" y2="20.3524" gradientUnits="userSpaceOnUse">
<stop stop-color="#00FFA3"/>
<stop offset="1" stop-color="#DC1FFF"/>
</linearGradient>
<linearGradient id="paint2_linear_471_8838" x1="18.8607" y1="-3.53271" x2="5.60581" y2="21.8556" gradientUnits="userSpaceOnUse">
<stop stop-color="#00FFA3"/>
<stop offset="1" stop-color="#DC1FFF"/>
</linearGradient>
</defs>
</svg>
