<svg width="49" height="48" viewBox="0 0 49 48" fill="none" xmlns="http://www.w3.org/2000/svg">
<path d="M35.913 45.4804H12.753C7.27301 45.4804 2.83301 41.0204 2.83301 35.5404V20.7204C2.83301 18.0004 4.51301 14.5804 6.67301 12.9004L17.453 4.50042C20.693 1.98042 25.873 1.86042 29.233 4.22042L41.593 12.8804C43.973 14.5404 45.833 18.1004 45.833 21.0004V35.5604C45.833 41.0204 41.393 45.4804 35.913 45.4804ZM19.293 6.86042L8.51301 15.2604C7.09301 16.3804 5.83301 18.9204 5.83301 20.7204V35.5404C5.83301 39.3604 8.93301 42.4804 12.753 42.4804H35.913C39.733 42.4804 42.833 39.3804 42.833 35.5604V21.0004C42.833 19.0804 41.453 16.4204 39.873 15.3404L27.513 6.68042C25.233 5.08042 21.473 5.16042 19.293 6.86042Z" fill="#F3F4F3"/>
<path d="M15.3329 34.4999C14.9529 34.4999 14.5729 34.3599 14.2729 34.0599C13.6929 33.4799 13.6929 32.5199 14.2729 31.9399L20.6729 25.5399C20.9929 25.2199 21.4129 25.0599 21.8729 25.0999C22.3129 25.1399 22.7129 25.3799 22.9729 25.7599L25.1529 29.0399L32.2529 21.9399C32.8329 21.3599 33.7929 21.3599 34.3729 21.9399C34.9529 22.5199 34.9529 23.4799 34.3729 24.0599L25.9729 32.4599C25.6529 32.7799 25.2329 32.9399 24.7729 32.8999C24.3329 32.8599 23.9329 32.6199 23.6729 32.2399L21.4929 28.9599L16.3929 34.0599C16.0929 34.3599 15.7129 34.4999 15.3329 34.4999Z" fill="#F3F4F3"/>
<path d="M33.333 28.5C32.513 28.5 31.833 27.82 31.833 27V24.5H29.333C28.513 24.5 27.833 23.82 27.833 23C27.833 22.18 28.513 21.5 29.333 21.5H33.333C34.153 21.5 34.833 22.18 34.833 23V27C34.833 27.82 34.153 28.5 33.333 28.5Z" fill="#F3F4F3"/>
</svg>
