<svg width="49" height="48" viewBox="0 0 49 48" fill="none" xmlns="http://www.w3.org/2000/svg">
<path d="M36.4066 43.7395C35.7866 43.7395 35.1667 43.5795 34.6067 43.2395L26.5867 38.4795C25.7467 38.4595 24.9067 38.3995 24.1067 38.2795C23.5667 38.1995 23.1066 37.8395 22.9066 37.3195C22.7066 36.7995 22.8067 36.2395 23.1667 35.8195C24.4867 34.2795 25.1667 32.4395 25.1667 30.4795C25.1667 25.6395 20.9067 21.6995 15.6667 21.6995C13.7067 21.6995 11.8266 22.2395 10.2466 23.2795C9.80664 23.5595 9.26665 23.5995 8.78665 23.3795C8.32665 23.1595 7.98667 22.7195 7.92667 22.1995C7.86667 21.6395 7.82666 21.0795 7.82666 20.4995C7.82666 10.5795 16.4267 2.51953 26.9867 2.51953C37.5467 2.51953 46.1467 10.5795 46.1467 20.4995C46.1467 25.9395 43.6266 30.9395 39.1866 34.3595L39.8667 39.7996C40.0267 41.1596 39.4267 42.4396 38.2867 43.1796C37.7267 43.5396 37.0666 43.7395 36.4066 43.7395ZM26.9666 35.4595C27.2466 35.4395 27.5267 35.5196 27.7667 35.6796L36.1467 40.6595C36.3667 40.7995 36.5467 40.7395 36.6667 40.6595C36.7667 40.5995 36.9267 40.4395 36.8867 40.1595L36.1067 33.8395C36.0467 33.2795 36.2867 32.7396 36.7267 32.4196C40.8067 29.5596 43.1467 25.1995 43.1467 20.4595C43.1467 12.1995 35.9067 5.47949 26.9867 5.47949C18.4067 5.47949 11.3666 11.7196 10.8466 19.5596C12.3466 18.9796 13.9667 18.6595 15.6467 18.6595C22.5467 18.6595 28.1467 23.9395 28.1467 30.4395C28.1667 32.1995 27.7466 33.8995 26.9666 35.4595Z" fill="#F3F4F3"/>
<path d="M9.82605 45.4996C9.30605 45.4996 8.80604 45.3597 8.34604 45.0597C7.44604 44.4797 6.96606 43.4797 7.08606 42.4197L7.48605 39.3396C4.78605 37.1396 3.18604 33.8796 3.18604 30.4596C3.18604 26.5596 5.22606 22.9196 8.64606 20.7396C10.7061 19.3996 13.146 18.6797 15.686 18.6797C22.586 18.6797 28.186 23.9596 28.186 30.4596C28.186 33.0996 27.226 35.6996 25.466 37.7596C23.206 40.4996 19.826 42.0996 16.106 42.2196L11.226 45.1196C10.786 45.3796 10.306 45.4996 9.82605 45.4996ZM15.666 21.6797C13.706 21.6797 11.826 22.2196 10.246 23.2596C7.68603 24.8996 6.16605 27.5796 6.16605 30.4596C6.16605 33.2396 7.52606 35.7797 9.92606 37.4197C10.3861 37.7397 10.626 38.2796 10.566 38.8396L10.126 42.2596L14.906 39.4197C15.146 39.2797 15.406 39.1996 15.666 39.1996C18.606 39.1996 21.3861 37.9397 23.1461 35.7997C24.4661 34.2397 25.166 32.3996 25.166 30.4396C25.166 25.6196 20.906 21.6797 15.666 21.6797Z" fill="#F3F4F3"/>
</svg>
