<svg width="432" height="56" viewBox="0 0 432 56" fill="none" xmlns="http://www.w3.org/2000/svg">
<path d="M0 6.68555V40.1622C0 40.985 0.102857 41.8077 0.257143 42.5791L18.0514 24.9923L0 6.68555ZM6.84 29.7232C5.34857 28.7462 4.37143 26.9978 4.37143 25.0437C4.37143 23.0896 5.34857 21.3926 6.84 20.3642C8.33143 21.3926 9.36 23.0896 9.36 25.0437C9.36 26.9978 8.33143 28.6948 6.84 29.7232Z" fill="black"/>
<path d="M25.3028 32.2935L7.19995 50.1888C8.22852 50.5488 9.35995 50.703 10.4914 50.703H14.8628C16.92 50.703 18.9257 51.1659 20.7257 52.0915C22.5257 53.0171 24.12 54.3027 25.3542 55.9997C27.8228 52.6571 31.7314 50.703 35.8457 50.703H40.2171C41.2457 50.703 42.1714 50.5488 43.0971 50.2917L25.3028 32.2935ZM25.3542 47.8233C23.8628 46.7949 22.8857 45.0979 22.8857 43.1438C22.8857 41.1897 23.8628 39.4927 25.3542 38.4643C26.8457 39.4927 27.8742 41.1897 27.8742 43.1438C27.8742 45.0979 26.8457 46.7949 25.3542 47.8233Z" fill="black"/>
<path d="M7.81714 0L25.4057 17.7925L43.4057 0H7.81714ZM25.3543 12.5473C23.8629 11.5188 22.8857 9.82187 22.8857 7.86778C22.8857 5.91369 23.8629 4.21672 25.3543 3.18825C26.8457 4.1653 27.8743 5.91369 27.8743 7.86778C27.8743 9.82187 26.8457 11.5188 25.3543 12.5473Z" fill="black"/>
<path d="M32.6057 25.0946L50.2971 43.0413C50.5543 42.1157 50.6571 41.1901 50.6571 40.2131V7.19922L32.6057 25.0946ZM42.84 29.7227C41.3486 28.7456 40.3714 26.9972 40.3714 25.0431C40.3714 23.0891 41.3486 21.3921 42.84 20.3636C44.3314 21.3921 45.36 23.0891 45.36 25.0431C45.36 26.9972 44.3314 28.6942 42.84 29.7227Z" fill="black"/>
<path d="M96.737 17.1241C94.8342 14.7072 91.9542 13.5244 88.0456 13.5244H75.9084V16.6098H76.8856C77.4513 16.6098 77.8627 16.7127 78.0684 16.9698C78.3256 17.2269 78.4284 17.5869 78.4284 18.1525V36.2021C78.4284 36.7678 78.3256 37.1792 78.0684 37.4363C77.8113 37.6934 77.4513 37.7963 76.8856 37.7963H75.9084V40.8303H88.0456C91.8513 40.8303 94.7313 39.5961 96.6856 37.1278C98.6399 34.6594 99.617 31.3683 99.617 27.3059C99.617 22.8835 98.6399 19.541 96.737 17.1241ZM93.3942 35.1737C92.2113 36.9221 90.2056 37.7963 87.4284 37.7963H82.8513V16.5584H87.4284C90.2056 16.5584 92.1599 17.4326 93.3942 19.2324C94.6285 20.9808 95.1942 23.7063 95.1942 27.3059C95.1942 30.8027 94.6285 33.4253 93.3942 35.1737Z" fill="black"/>
<path d="M122.348 29.9288C122.348 26.8434 121.526 24.4265 119.88 22.6267C118.234 20.8268 115.868 19.9526 112.68 19.9526C109.388 19.9526 106.868 20.8783 105.068 22.7295C103.268 24.5807 102.394 27.3062 102.394 30.9572C102.394 34.4026 103.371 36.9738 105.274 38.7736C107.228 40.5734 109.748 41.4476 112.988 41.4476C114.84 41.4476 116.434 41.2419 117.823 40.8305C119.211 40.4192 120.446 39.8021 121.628 38.9793V35.9967H117.72V37.5394C117.103 37.8994 116.486 38.1565 115.714 38.3108C114.994 38.4651 114.068 38.5165 113.04 38.5165C111.137 38.5165 109.646 37.9508 108.566 36.8709C107.434 35.791 106.92 34.0941 106.92 31.8314H122.4V29.9288H122.348ZM106.868 29.1574C106.868 27.2548 107.383 25.7635 108.36 24.6322C109.337 23.5523 110.777 22.9866 112.68 22.9866C116.228 22.9866 118.028 25.0436 118.028 29.1574H106.868Z" fill="black"/>
<path d="M139.937 32.9117C139.371 32.1403 138.651 31.4718 137.777 31.009C136.903 30.5462 135.72 30.032 134.28 29.4663C133.817 29.2606 133.354 29.1063 132.994 29.0035C131.606 28.4893 130.526 28.0264 129.857 27.5636C129.189 27.1008 128.829 26.4323 128.829 25.6095C128.829 24.6839 129.137 24.0154 129.754 23.6555C130.371 23.2441 131.349 23.0384 132.583 23.0384C133.971 23.0384 135.206 23.3469 136.234 23.964V25.5067H140.297V22.3699C139.269 21.5985 138.086 21.0329 136.697 20.6215C135.309 20.2101 133.869 20.0044 132.274 20.0044C129.806 20.0044 127.851 20.4672 126.411 21.4442C124.971 22.3699 124.251 23.8097 124.251 25.661C124.251 26.7923 124.509 27.7693 125.074 28.5407C125.64 29.312 126.36 29.9291 127.234 30.3919C128.109 30.9062 129.394 31.4718 131.04 32.1403C132.686 32.8088 133.817 33.2716 134.383 33.5288C134.949 33.7859 135.411 34.0944 135.72 34.5058C136.029 34.8658 136.183 35.38 136.183 35.9457C136.183 36.8713 135.874 37.4884 135.206 37.8997C134.589 38.3111 133.611 38.4654 132.377 38.4654C130.731 38.4654 129.291 38.1054 128.16 37.4369V35.74H124.046V39.0311C126.309 40.6766 129.137 41.4994 132.531 41.4994C135.309 41.4994 137.366 41.0366 138.703 40.0595C140.04 39.0825 140.76 37.7455 140.76 35.9457C140.76 34.6601 140.503 33.683 139.937 32.9117Z" fill="black"/>
<path d="M159.891 36.7167C159.069 37.2309 158.194 37.6423 157.32 37.848C156.394 38.0537 155.314 38.208 154.029 38.208C151.971 38.208 150.223 37.5909 148.886 36.4081C147.549 35.2254 146.88 33.3741 146.88 30.9058C146.88 28.2832 147.446 26.3806 148.629 25.095C149.811 23.8608 151.303 23.1923 153.206 23.1923C154.234 23.1923 155.006 23.2437 155.623 23.398C156.24 23.5523 156.857 23.8094 157.474 24.1694V26.4834H161.383V22.421C160.251 21.5468 159.017 20.9297 157.783 20.5183C156.549 20.1069 155.006 19.9526 153.206 19.9526C149.863 19.9526 147.24 20.8783 145.337 22.7809C143.434 24.6322 142.509 27.3576 142.509 30.9058C142.509 33.117 142.971 35.0197 143.949 36.6138C144.874 38.2079 146.211 39.4421 147.857 40.2649C149.503 41.0877 151.354 41.499 153.36 41.499C155.16 41.499 156.651 41.3448 157.886 41.0362C159.12 40.7277 160.303 40.162 161.486 39.3393L159.891 36.7167Z" fill="black"/>
<path d="M182.571 37.9508C182.108 37.9508 181.748 37.848 181.543 37.5909C181.337 37.3337 181.234 36.9224 181.234 36.3567V27.1005C181.234 22.3181 178.56 19.9526 173.108 19.9526C170.177 19.9526 167.503 20.6726 165.137 22.1638V25.5064H169.046V23.9637C169.56 23.6037 170.126 23.398 170.691 23.2437C171.308 23.0895 172.08 23.038 173.006 23.038C174.343 23.038 175.32 23.3466 175.886 23.9122C176.451 24.5293 176.708 25.4549 176.708 26.792V29.3631L170.794 29.7231C168.377 29.8774 166.526 30.443 165.24 31.3686C163.954 32.2943 163.337 33.7855 163.337 35.8425C163.337 37.6423 163.903 39.0307 165.086 40.0078C166.268 40.9848 167.966 41.499 170.228 41.499C172.183 41.499 173.726 41.2419 174.908 40.7277C176.091 40.2135 177.171 39.3907 178.046 38.208L178.611 40.882H183.446V38.0023H182.571V37.9508ZM176.76 33.9912C176.76 35.4825 176.246 36.6138 175.268 37.3337C174.291 38.0537 172.954 38.4136 171.257 38.4136C169.92 38.4136 168.994 38.1565 168.377 37.6937C167.811 37.2309 167.503 36.511 167.503 35.5854C167.503 34.5055 167.76 33.7341 168.274 33.2199C168.788 32.7056 169.766 32.4485 171.154 32.3457L176.708 31.9343V33.9912H176.76Z" fill="black"/>
<path d="M197.846 20.5688C196.611 20.5688 195.583 20.7231 194.709 21.0831C193.834 21.443 193.114 22.0087 192.549 22.8829L191.983 20.5688H186.171V23.7057H187.046C187.56 23.7057 187.971 23.8085 188.177 24.0656C188.383 24.3228 188.537 24.7341 188.537 25.2484V36.1501C188.537 36.7158 188.434 37.1272 188.177 37.3329C187.92 37.59 187.56 37.6928 186.994 37.6928H185.966V40.8297H195.634V37.6928H194.606C194.091 37.6928 193.68 37.59 193.474 37.3329C193.269 37.0758 193.114 36.7158 193.114 36.1501V28.0767C193.114 26.5854 193.474 25.5055 194.143 24.7856C194.811 24.0656 195.943 23.7057 197.589 23.7057H199.954V20.5688H197.846Z" fill="black"/>
<path d="M214.509 35.7914V37.5912C213.84 38.1055 212.914 38.414 211.68 38.414C210.703 38.414 210.034 38.1569 209.571 37.5912C209.109 37.077 208.851 36.1514 208.851 34.9172V23.6041H214.92V20.5701H208.851V14.605L204.377 16.0448V20.5701H201.086V23.6041H204.377V34.6601C204.377 36.8713 204.943 38.5683 206.126 39.6996C207.309 40.8309 209.057 41.448 211.371 41.448C212.863 41.448 214.149 41.2423 215.229 40.8309C216.309 40.4195 217.337 39.8025 218.263 39.0311V35.8428H214.509V35.7914Z" fill="black"/>
<path d="M239.811 29.9288C239.811 26.8434 238.988 24.4265 237.343 22.6267C235.697 20.8268 233.331 19.9526 230.143 19.9526C226.851 19.9526 224.331 20.8783 222.531 22.7295C220.731 24.5807 219.857 27.3062 219.857 30.9572C219.857 34.4026 220.834 36.9738 222.737 38.7736C224.64 40.5734 227.211 41.4476 230.451 41.4476C232.303 41.4476 233.897 41.2419 235.286 40.8305C236.674 40.4192 237.908 39.8021 239.091 38.9793V35.9967H235.183V37.5394C234.617 37.8994 233.948 38.1565 233.177 38.3108C232.406 38.4651 231.531 38.5165 230.503 38.5165C228.6 38.5165 227.108 37.9508 226.028 36.8709C224.897 35.791 224.383 34.0941 224.383 31.8314H239.863V29.9288H239.811ZM224.331 29.1574C224.331 27.2548 224.846 25.7635 225.823 24.6322C226.8 23.5523 228.24 22.9866 230.143 22.9866C233.691 22.9866 235.491 25.0436 235.491 29.1574H224.331Z" fill="black"/>
<path d="M257.4 32.9117C256.834 32.1403 256.114 31.4718 255.24 31.009C254.365 30.5462 253.183 30.032 251.743 29.4663C251.28 29.2606 250.817 29.1063 250.457 29.0035C249.068 28.4893 247.988 28.0264 247.32 27.5636C246.651 27.1008 246.291 26.4323 246.291 25.6095C246.291 24.6839 246.6 24.0154 247.217 23.6555C247.834 23.2441 248.811 23.0384 250.045 23.0384C251.434 23.0384 252.668 23.3469 253.645 23.964V25.5067H257.708V22.3699C256.68 21.5985 255.497 21.0329 254.108 20.6215C252.72 20.2101 251.28 20.0044 249.685 20.0044C247.217 20.0044 245.263 20.4672 243.823 21.4442C242.383 22.4213 241.663 23.8097 241.663 25.661C241.663 26.7923 241.92 27.7693 242.485 28.5407C243.051 29.312 243.771 29.9291 244.645 30.3919C245.52 30.9062 246.805 31.4718 248.451 32.1403C250.097 32.8088 251.228 33.2716 251.794 33.5288C252.36 33.7859 252.823 34.0944 253.131 34.5058C253.44 34.9172 253.594 35.38 253.594 35.9457C253.594 36.8713 253.285 37.4884 252.668 37.8997C252.051 38.3111 251.074 38.4654 249.84 38.4654C248.194 38.4654 246.754 38.1054 245.623 37.4369V35.74H241.508V39.0311C243.771 40.6766 246.6 41.4994 249.994 41.4994C252.771 41.4994 254.828 41.0366 256.165 40.0595C257.554 39.0825 258.223 37.7455 258.223 35.9457C258.274 34.6601 257.965 33.683 257.4 32.9117Z" fill="black"/>
<path d="M292.114 13.5244V16.6612H293.4C293.914 16.6612 294.326 16.7641 294.583 17.0212C294.84 17.2783 294.943 17.6383 294.943 18.2039V33.5281L282.086 13.5758H275.812V16.7127H277.046C277.612 16.7127 278.023 16.8155 278.229 17.0726C278.486 17.3297 278.589 17.6897 278.589 18.2554V36.2536C278.589 36.7678 278.486 37.1792 278.229 37.4363C277.972 37.6934 277.612 37.7963 277.046 37.7963H275.812V40.9331H285.789V37.7963H284.554C284.04 37.7963 283.629 37.6934 283.372 37.4363C283.114 37.1792 283.012 36.8192 283.012 36.2536V20.9294L295.869 40.8302H299.366V18.2039C299.366 17.6897 299.469 17.2783 299.726 17.0212C299.983 16.7641 300.343 16.6612 300.857 16.6612H302.143V13.5244H292.114V13.5244Z" fill="black"/>
<path d="M322.971 29.9288C322.971 26.8434 322.148 24.4265 320.503 22.6267C318.857 20.8268 316.491 19.9526 313.303 19.9526C310.011 19.9526 307.491 20.8783 305.691 22.7295C303.891 24.5807 303.017 27.3062 303.017 30.9572C303.017 34.4026 303.994 36.9738 305.897 38.7736C307.851 40.5734 310.371 41.4476 313.611 41.4476C315.463 41.4476 317.057 41.2419 318.445 40.8305C319.783 40.4192 321.068 39.8021 322.251 38.9793V35.9967H318.343V37.5394C317.725 37.8994 317.108 38.1565 316.337 38.3108C315.565 38.4651 314.743 38.5679 313.663 38.5679C311.76 38.5679 310.268 38.0023 309.188 36.9224C308.057 35.8425 307.543 34.1455 307.543 31.8829H322.971V29.9288ZM307.491 29.1574C307.491 27.2548 308.005 25.7635 308.983 24.6322C309.96 23.5523 311.4 22.9866 313.303 22.9866C316.851 22.9866 318.651 25.0436 318.651 29.1574H307.491Z" fill="black"/>
<path d="M337.68 35.7914V37.5912C337.011 38.1055 336.086 38.414 334.851 38.414C333.874 38.414 333.206 38.1569 332.743 37.5912C332.28 37.0256 332.074 36.1514 332.074 34.9172V23.6041H338.143V20.5701H332.074V14.605L327.6 16.0448V20.5701H324.309V23.6041H327.6V34.6601C327.6 36.8713 328.166 38.5683 329.4 39.6996C330.583 40.8309 332.331 41.448 334.646 41.448C336.137 41.448 337.423 41.2423 338.503 40.8309C339.583 40.4195 340.611 39.8025 341.537 39.0311V35.8428H337.68V35.7914Z" fill="black"/>
<path d="M364.886 20.5688L361.234 35.7388L357.12 22.3687H353.828L349.714 35.7388L346.166 20.5688H340.303V23.5H341.331C341.897 23.5 342.36 23.6028 342.617 23.7571C342.874 23.9114 343.08 24.2199 343.183 24.6827L347.04 40.8297H351.411L355.474 27.9738L359.486 40.8297H363.857L367.714 24.6827C367.817 24.2199 368.023 23.9114 368.28 23.7571C368.537 23.6028 369 23.5 369.566 23.5H370.646V20.5688H364.886Z" fill="black"/>
<path d="M389.366 22.7809C387.617 20.8783 385.046 19.9526 381.6 19.9526C378.154 19.9526 375.531 20.9297 373.834 22.7809C372.086 24.6836 371.263 27.3062 371.263 30.7516C371.263 34.1455 372.137 36.7681 373.886 38.6193C375.634 40.522 378.206 41.4476 381.651 41.4476C385.097 41.4476 387.668 40.522 389.417 38.6193C391.166 36.7167 392.04 34.0941 392.04 30.7516C391.937 27.3576 391.063 24.6836 389.366 22.7809ZM386.074 36.4596C385.097 37.6937 383.606 38.3108 381.548 38.3108C379.543 38.3108 378.051 37.6937 377.074 36.4596C376.097 35.2254 375.634 33.3227 375.634 30.7516C375.634 28.1804 376.148 26.2263 377.074 24.9921C378.051 23.758 379.543 23.0895 381.548 23.0895C383.554 23.0895 385.097 23.7065 386.074 24.9921C387.051 26.2263 387.566 28.1804 387.566 30.7516C387.566 33.3227 387.051 35.2254 386.074 36.4596Z" fill="black"/>
<path d="M406.697 20.5688C405.514 20.5688 404.434 20.7231 403.56 21.0831C402.686 21.443 401.966 22.0087 401.4 22.8829L400.783 20.5688H394.972V23.7057H395.846C396.36 23.7057 396.772 23.8085 396.977 24.0656C397.183 24.3228 397.337 24.7341 397.337 25.2484V36.1501C397.337 36.7158 397.234 37.1272 396.977 37.3329C396.72 37.59 396.36 37.6928 395.794 37.6928H394.766V40.8297H404.434V37.6928H403.354C402.84 37.6928 402.429 37.59 402.223 37.3329C402.017 37.0758 401.863 36.7158 401.863 36.1501V28.0767C401.863 26.5854 402.223 25.5055 402.892 24.7856C403.56 24.0656 404.692 23.7057 406.286 23.7057H408.652V20.5688H406.697Z" fill="black"/>
<path d="M430.251 37.8477C429.686 37.8477 429.274 37.7963 429.017 37.5906C428.76 37.4364 428.451 37.1278 428.194 36.665L423.103 28.0259L427.269 24.3748C427.68 24.0663 427.989 23.8091 428.194 23.7063C428.4 23.6035 428.76 23.552 429.223 23.552H431.177V20.5695H421.56V23.5006H423.617L416.777 29.62V17.2269C416.777 16.7127 416.88 16.3013 417.086 16.0956C417.291 15.8899 417.651 15.7871 418.114 15.7871H419.297V12.856H410.246V15.7871H411.223C411.737 15.7871 412.149 15.8899 412.303 16.0956C412.509 16.3013 412.611 16.6613 412.611 17.2269V36.3565C412.611 36.8707 412.509 37.2821 412.303 37.4878C412.097 37.6935 411.686 37.7963 411.171 37.7963H410.04V40.7789H419.606V37.7963H418.32C417.754 37.7963 417.394 37.6935 417.137 37.4878C416.931 37.2821 416.829 36.9221 416.829 36.3565V33.4767L420.223 30.4942L426.343 40.8303H432V37.8477H430.251V37.8477Z" fill="black"/>
</svg>
