<svg width="432" height="56" viewBox="0 0 432 56" fill="none" xmlns="http://www.w3.org/2000/svg">
<path d="M0 6.73682V40.2134C0 41.0362 0.102882 41.8589 0.257204 42.6303L18.0557 25.0435L0 6.73682ZM6.84163 29.723C5.34985 28.746 4.37247 26.9976 4.37247 25.0435C4.37247 23.0894 5.34985 21.3925 6.84163 20.364C8.33342 21.341 9.36223 23.0894 9.36223 25.0435C9.36223 26.9976 8.33342 28.6946 6.84163 29.723Z" fill="white"/>
<path d="M25.309 32.2939L7.20178 50.1893C8.2306 50.5492 9.3623 50.7035 10.494 50.7035H14.8665C16.9241 50.7035 18.9303 51.2177 20.7307 52.0919C22.5312 53.0175 24.1258 54.3031 25.3604 56.0001C27.8296 52.6576 31.7391 50.7035 35.8543 50.7035H40.2268C41.2556 50.7035 42.1816 50.5492 43.1075 50.2921L25.309 32.2939ZM25.3604 47.8238C23.8686 46.7953 22.8912 45.0984 22.8912 43.1443C22.8912 41.1902 23.8686 39.4932 25.3604 38.4647C26.8522 39.4932 27.881 41.1902 27.881 43.1443C27.881 45.0984 26.8522 46.7953 25.3604 47.8238Z" fill="white"/>
<path d="M7.81897 0L25.4117 17.7925L43.416 0H7.81897ZM25.3603 12.5473C23.8685 11.5702 22.8911 9.82185 22.8911 7.86777C22.8911 5.91368 23.8685 4.21671 25.3603 3.23967C26.8521 4.21671 27.8809 5.96511 27.8809 7.86777C27.8295 9.82185 26.8521 11.5702 25.3603 12.5473Z" fill="white"/>
<path d="M32.6135 25.0945L50.3092 42.9899C50.5664 42.0642 50.6693 41.1386 50.6693 40.1616V7.19922L32.6135 25.0945ZM42.8503 29.7226C41.3585 28.7456 40.3811 26.9972 40.3811 25.0431C40.3811 23.089 41.3585 21.3921 42.8503 20.3636C44.342 21.3406 45.3709 23.089 45.3709 25.0431C45.3709 26.9972 44.342 28.6942 42.8503 29.7226Z" fill="white"/>
<path d="M75.9268 37.7962H76.9042C77.47 37.7962 77.8816 37.6934 78.0873 37.4363C78.3445 37.1791 78.4474 36.7678 78.4474 36.2021V18.1525C78.4474 17.6383 78.3445 17.2269 78.0873 16.9698C77.8301 16.7127 77.47 16.6098 76.9042 16.6098H75.9268V13.5244H88.0668C91.9763 13.5244 94.857 14.7072 96.7604 17.124C98.6637 19.4895 99.5896 22.8835 99.5896 27.3059C99.5896 31.4197 98.6122 34.7108 96.6575 37.1277C94.7027 39.596 91.822 40.8302 88.0154 40.8302H75.8754V37.7962H75.9268ZM87.4496 37.7962C90.2274 37.7962 92.1821 36.922 93.4167 35.1736C94.6513 33.4252 95.2171 30.8027 95.2171 27.3059C95.2171 23.7062 94.5998 21.0322 93.4167 19.2324C92.2336 17.4326 90.2274 16.5584 87.4496 16.5584H82.8713V37.7448H87.4496V37.7962Z" fill="white"/>
<path d="M105.299 38.7731C103.396 36.9733 102.419 34.4021 102.419 30.9567C102.419 27.3057 103.293 24.5288 105.094 22.729C106.894 20.8778 109.415 19.9521 112.707 19.9521C115.896 19.9521 118.314 20.8778 119.909 22.6262C121.555 24.426 122.378 26.8429 122.378 29.9283V31.8824H106.894C106.894 34.145 107.46 35.842 108.54 36.9218C109.672 38.0017 111.164 38.5674 113.016 38.5674C114.096 38.5674 114.97 38.4645 115.69 38.3103C116.411 38.156 117.079 37.8989 117.697 37.5389V35.9962H121.606V38.9274C120.423 39.7501 119.137 40.4186 117.8 40.7786C116.411 41.19 114.816 41.3957 112.964 41.3957C109.775 41.4471 107.203 40.5729 105.299 38.7731ZM118.005 29.1569C118.005 25.0431 116.205 22.9861 112.655 22.9861C110.752 22.9861 109.312 23.5518 108.334 24.6317C107.357 25.7116 106.843 27.2543 106.843 29.1569H118.005Z" fill="white"/>
<path d="M124.075 39.0304V35.7393H128.191V37.4363C129.322 38.1048 130.763 38.4647 132.409 38.4647C133.695 38.4647 134.621 38.259 135.238 37.8991C135.855 37.4877 136.164 36.8706 136.164 35.945C136.164 35.3793 136.01 34.8651 135.701 34.5051C135.392 34.1452 134.929 33.7852 134.363 33.5281C133.798 33.271 132.666 32.8082 131.02 32.1397C129.374 31.4712 128.088 30.9055 127.213 30.3913C126.339 29.877 125.619 29.2599 125.053 28.54C124.487 27.7687 124.23 26.8431 124.23 25.6603C124.23 23.8091 124.95 22.4206 126.39 21.4436C127.83 20.518 129.785 20.0552 132.254 20.0552C133.849 20.0552 135.289 20.2609 136.678 20.6723C138.067 21.0836 139.25 21.6493 140.279 22.4206V25.6089H136.215V24.0662C135.187 23.4491 134.003 23.1406 132.563 23.1406C131.277 23.1406 130.351 23.3463 129.734 23.7062C129.117 24.1176 128.808 24.7861 128.808 25.7117C128.808 26.5345 129.168 27.203 129.837 27.6658C130.505 28.1286 131.534 28.5914 132.975 29.1057C133.386 29.2085 133.798 29.3628 134.261 29.5685C135.701 30.1341 136.884 30.6484 137.759 31.1112C138.633 31.574 139.353 32.2425 139.919 33.0139C140.485 33.7852 140.742 34.8137 140.742 35.9964C140.742 37.7962 140.073 39.1846 138.685 40.1103C137.296 41.0873 135.238 41.5501 132.512 41.5501C129.168 41.4473 126.339 40.6245 124.075 39.0304Z" fill="white"/>
<path d="M147.841 40.2128C146.195 39.39 144.909 38.2072 143.931 36.5617C142.954 34.9676 142.491 33.0649 142.491 30.8023C142.491 27.2541 143.417 24.5801 145.32 22.6774C147.224 20.7747 149.847 19.8491 153.191 19.8491C155.043 19.8491 156.534 20.0548 157.769 20.4148C159.004 20.8262 160.187 21.4432 161.37 22.3174V26.3799H157.46V24.1687C156.792 23.8087 156.174 23.5516 155.609 23.3973C155.043 23.2431 154.22 23.1916 153.191 23.1916C151.287 23.1916 149.796 23.8087 148.613 25.0429C147.429 26.277 146.864 28.2311 146.864 30.8537C146.864 33.322 147.532 35.1733 148.87 36.356C150.207 37.5387 151.905 38.1558 154.014 38.1558C155.3 38.1558 156.432 38.053 157.306 37.7959C158.232 37.5902 159.106 37.1788 159.878 36.6646L161.421 39.2357C160.238 40.0585 159.055 40.6241 157.82 40.9327C156.586 41.2412 155.094 41.3955 153.294 41.3955C151.339 41.4469 149.487 41.0355 147.841 40.2128Z" fill="white"/>
<path d="M165.176 40.0076C163.993 39.0305 163.427 37.6421 163.427 35.8423C163.427 33.8368 164.045 32.3455 165.331 31.3685C166.617 30.4428 168.469 29.8772 170.886 29.7229L176.802 29.3629V26.7918C176.802 25.4548 176.545 24.5292 175.979 23.9121C175.413 23.3464 174.436 23.0379 173.098 23.0379C172.172 23.0379 171.401 23.1407 170.784 23.295C170.166 23.4493 169.6 23.7064 169.137 24.0149V25.5576H165.228V22.2151C167.594 20.7753 170.269 20.0039 173.201 20.0039C178.603 20.0039 181.277 22.3694 181.277 27.1517V36.4079C181.277 36.9736 181.38 37.385 181.586 37.6421C181.792 37.8992 182.152 38.0021 182.615 38.0021H183.541V40.8818H178.705L178.14 38.2078C177.214 39.3391 176.185 40.2133 175.002 40.7275C173.819 41.2417 172.224 41.4989 170.321 41.4989C168.057 41.4474 166.36 40.9846 165.176 40.0076ZM175.362 37.3336C176.339 36.6136 176.854 35.4823 176.854 33.991V31.9855L171.246 32.3969C169.858 32.4998 168.932 32.7569 168.366 33.2711C167.851 33.7854 167.543 34.5567 167.543 35.6366C167.543 36.5622 167.851 37.2821 168.417 37.745C168.983 38.2078 169.96 38.4649 171.298 38.4649C172.995 38.4135 174.333 38.0535 175.362 37.3336Z" fill="white"/>
<path d="M185.907 37.6933H186.987C187.553 37.6933 187.965 37.5905 188.17 37.3333C188.428 37.0762 188.53 36.7163 188.53 36.1506V25.2489C188.53 24.7346 188.428 24.3232 188.17 24.0661C187.965 23.809 187.553 23.7062 187.039 23.7062H186.164V20.5693H191.977L192.543 22.8834C193.109 22.0092 193.829 21.3921 194.703 21.0836C195.578 20.7236 196.658 20.5693 197.841 20.5693H199.796V23.7062H197.43C195.835 23.7062 194.703 24.0661 194.035 24.786C193.366 25.506 193.006 26.5859 193.006 28.0771V36.1506C193.006 36.7163 193.109 37.1276 193.366 37.3333C193.572 37.5905 193.983 37.6933 194.498 37.6933H195.578V40.8301H185.907V37.6933V37.6933Z" fill="white"/>
<path d="M206.226 39.7502C205.043 38.6189 204.477 36.9219 204.477 34.7107V23.6032H201.134V20.5693H204.426V15.9926L208.901 14.5527V20.5693H214.971V23.6032H208.901V34.9678C208.901 36.202 209.158 37.0761 209.621 37.6418C210.084 38.156 210.805 38.4646 211.73 38.4646C212.965 38.4646 213.891 38.2075 214.56 37.6418V35.842H218.418V39.0302C217.492 39.8016 216.463 40.4187 215.383 40.8301C214.303 41.2414 213.017 41.4471 211.525 41.4471C209.158 41.4471 207.409 40.8815 206.226 39.7502Z" fill="white"/>
<path d="M222.842 38.7731C220.938 36.9733 219.961 34.4021 219.961 30.9567C219.961 27.3057 220.835 24.5288 222.636 22.729C224.436 20.8778 226.957 19.9521 230.249 19.9521C233.438 19.9521 235.856 20.8778 237.451 22.6262C239.097 24.426 239.92 26.8429 239.92 29.9283V31.8824H224.436C224.436 34.145 225.002 35.842 226.082 36.9218C227.214 38.0017 228.706 38.5674 230.558 38.5674C231.638 38.5674 232.512 38.4645 233.233 38.3103C233.953 38.156 234.622 37.8989 235.239 37.5389V35.9962H239.148V38.9274C237.965 39.7501 236.679 40.4186 235.342 40.7786C233.953 41.19 232.358 41.3957 230.506 41.3957C227.317 41.4471 224.745 40.5729 222.842 38.7731ZM235.548 29.1569C235.548 25.0431 233.747 22.9861 230.198 22.9861C228.294 22.9861 226.854 23.5518 225.877 24.6317C224.899 25.7116 224.385 27.2543 224.385 29.1569H235.548Z" fill="white"/>
<path d="M241.618 39.0304V35.7393H245.733V37.4363C246.865 38.1048 248.305 38.4647 249.951 38.4647C251.237 38.4647 252.163 38.259 252.78 37.8991C253.398 37.4877 253.706 36.8706 253.706 35.945C253.706 35.3793 253.552 34.8651 253.243 34.5051C252.935 34.1452 252.472 33.7852 251.906 33.5281C251.34 33.271 250.208 32.8082 248.562 32.1397C246.916 31.4712 245.63 30.9055 244.756 30.3913C243.881 29.877 243.161 29.2599 242.595 28.54C242.029 27.7687 241.772 26.8431 241.772 25.6603C241.772 23.8091 242.492 22.4206 243.933 21.4436C245.373 20.518 247.328 20.0552 249.797 20.0552C251.391 20.0552 252.832 20.2609 254.221 20.6723C255.61 21.0836 256.793 21.6493 257.822 22.4206V25.6089H253.758V24.0662C252.729 23.4491 251.546 23.1406 250.105 23.1406C248.819 23.1406 247.893 23.3463 247.276 23.7062C246.659 24.1176 246.35 24.7861 246.35 25.7117C246.35 26.5345 246.71 27.203 247.379 27.6658C248.048 28.1286 249.077 28.5914 250.517 29.1057C250.928 29.2085 251.34 29.3628 251.803 29.5685C253.243 30.1341 254.426 30.6484 255.301 31.1112C256.175 31.574 256.896 32.2425 257.461 33.0139C258.027 33.7852 258.285 34.8137 258.285 35.9964C258.285 37.7962 257.616 39.1846 256.227 40.1103C254.838 41.0873 252.78 41.5501 250.054 41.5501C246.71 41.4473 243.881 40.6245 241.618 39.0304Z" fill="white"/>
<path d="M275.877 37.6935H277.112C277.678 37.6935 278.089 37.5907 278.295 37.3336C278.552 37.0764 278.655 36.7165 278.655 36.1508V18.1527C278.655 17.6384 278.552 17.227 278.295 16.9699C278.038 16.7128 277.678 16.61 277.112 16.61H275.877V13.4731H282.153L295.013 33.4254V18.2041C295.013 17.6899 294.91 17.2785 294.653 17.0214C294.396 16.7642 293.985 16.6614 293.47 16.6614H292.184V13.5246H302.215V16.6614H300.929C300.415 16.6614 300.003 16.7642 299.746 17.0214C299.489 17.2785 299.386 17.6384 299.386 18.2041V40.8304H295.888L283.028 20.9295V36.2023C283.028 36.7165 283.131 37.1279 283.388 37.385C283.645 37.6421 284.056 37.745 284.571 37.745H285.805V40.8818H275.826V37.6935H275.877Z" fill="white"/>
<path d="M306.022 38.7731C304.118 36.9733 303.141 34.4021 303.141 30.9567C303.141 27.3057 304.015 24.5288 305.816 22.729C307.616 20.8778 310.137 19.9521 313.429 19.9521C316.618 19.9521 319.036 20.8778 320.631 22.6262C322.277 24.426 323.1 26.8429 323.1 29.9283V31.8824H307.616C307.616 34.145 308.182 35.842 309.262 36.9218C310.394 38.0017 311.886 38.5674 313.738 38.5674C314.818 38.5674 315.692 38.4645 316.413 38.3103C317.133 38.156 317.802 37.8989 318.419 37.5389V35.9962H322.328V38.9274C321.145 39.7501 319.859 40.4186 318.522 40.7786C317.133 41.19 315.538 41.3957 313.686 41.3957C310.497 41.4471 307.925 40.5729 306.022 38.7731ZM318.727 29.1569C318.727 25.0431 316.927 22.9861 313.378 22.9861C311.474 22.9861 310.034 23.5518 309.057 24.6317C308.079 25.7116 307.565 27.2543 307.565 29.1569H318.727Z" fill="white"/>
<path d="M329.427 39.7502C328.244 38.6189 327.678 36.9219 327.678 34.7107V23.6032H324.386V20.5693H327.678V15.9926L332.154 14.5527V20.5693H338.224V23.6032H332.154V34.9678C332.154 36.202 332.411 37.0761 332.874 37.6418C333.337 38.156 334.057 38.4646 334.983 38.4646C336.217 38.4646 337.143 38.2075 337.812 37.6418V35.842H341.67V39.0302C340.744 39.8016 339.715 40.4187 338.635 40.8301C337.555 41.2414 336.269 41.4471 334.777 41.4471C332.359 41.4471 330.61 40.8815 329.427 39.7502Z" fill="white"/>
<path d="M343.316 24.6832C343.213 24.2204 343.008 23.9119 342.75 23.7576C342.493 23.6033 342.03 23.5005 341.464 23.5005H340.384V20.5693H346.248L349.798 35.7392L353.913 22.3692H357.205L361.32 35.7392L364.973 20.5693H370.786V23.5005H369.757C369.191 23.5005 368.728 23.6033 368.471 23.7576C368.214 23.9119 368.008 24.2204 367.905 24.6832L364.047 40.8301H359.674L355.662 27.9743L351.598 40.8301H347.226L343.316 24.6832Z" fill="white"/>
<path d="M373.872 38.6188C372.123 36.7161 371.249 34.0936 371.249 30.751C371.249 27.3571 372.123 24.6831 373.821 22.7804C375.57 20.8778 378.142 19.9521 381.588 19.9521C385.035 19.9521 387.658 20.8778 389.356 22.7804C391.105 24.6831 391.928 27.3057 391.928 30.751C391.928 34.145 391.053 36.7676 389.304 38.6188C387.556 40.5215 384.983 41.4471 381.537 41.4471C378.245 41.4471 375.621 40.5215 373.872 38.6188ZM386.167 36.459C387.144 35.2249 387.658 33.3222 387.658 30.751C387.658 28.1799 387.144 26.2258 386.167 24.9916C385.189 23.7575 383.697 23.1404 381.64 23.1404C379.634 23.1404 378.142 23.7575 377.164 24.9916C376.187 26.2258 375.724 28.1799 375.724 30.751C375.724 33.3222 376.187 35.2249 377.164 36.459C378.142 37.6932 379.634 38.3103 381.64 38.3103C383.697 38.3103 385.189 37.6932 386.167 36.459Z" fill="white"/>
<path d="M394.809 37.6933H395.889C396.455 37.6933 396.866 37.5905 397.072 37.3333C397.329 37.0762 397.432 36.7163 397.432 36.1506V25.2489C397.432 24.7346 397.329 24.3232 397.072 24.0661C396.866 23.809 396.455 23.7062 395.94 23.7062H395.066V20.5693H400.879L401.444 22.8834C402.01 22.0092 402.73 21.3921 403.605 21.0836C404.479 20.7236 405.56 20.5693 406.743 20.5693H408.698V23.7062H406.383C404.788 23.7062 403.656 24.0661 402.988 24.786C402.319 25.506 401.959 26.5859 401.959 28.0771V36.1506C401.959 36.7163 402.062 37.1276 402.319 37.3333C402.525 37.5905 402.936 37.6933 403.451 37.6933H404.531V40.8301H394.86V37.6933H394.809Z" fill="white"/>
<path d="M410.035 37.8475H411.167C411.733 37.8475 412.093 37.7447 412.35 37.539C412.607 37.3333 412.658 36.9733 412.658 36.4077V17.2782C412.658 16.764 412.556 16.3526 412.35 16.1469C412.144 15.9412 411.784 15.8384 411.27 15.8384H410.292V12.9072H419.346V15.8384H418.163C417.648 15.8384 417.288 15.9412 417.082 16.1469C416.877 16.3526 416.774 16.7126 416.774 17.2782V29.6712L423.615 23.5519H421.558V20.5693H431.177V23.5004H429.222C428.759 23.5004 428.451 23.5519 428.194 23.6547C427.988 23.7575 427.679 24.0147 427.268 24.3232L423.101 27.9743L428.194 36.6134C428.451 37.0762 428.759 37.3847 429.017 37.539C429.274 37.6933 429.685 37.7961 430.251 37.7961H432V40.7787H426.342L420.117 30.4426L416.722 33.4251V36.3563C416.722 36.8705 416.825 37.2819 417.031 37.4876C417.237 37.6933 417.648 37.7961 418.214 37.7961H419.5V40.7787H409.932V37.8475H410.035Z" fill="white"/>
</svg>
